<svg width="48" height="48" viewBox="0 0 48 48" fill="none" xmlns="http://www.w3.org/2000/svg">
<path d="M21.3981 10.1951L16.8816 8.98486C16.3879 8.85257 15.8341 8.96217 15.4363 9.27079C15.1338 9.50535 14.9455 9.8377 14.9045 10.2005L14.4041 12.0679C14.2567 12.4095 14.2555 12.7992 14.4047 13.1595C14.4538 13.2781 14.5181 13.3904 14.5946 13.4945C14.1164 14.4899 13.5714 15.7176 12.9992 17.0834C12.9986 17.085 12.9979 17.0865 12.9972 17.088C12.4975 18.2813 11.9773 19.5791 11.4636 20.9193C9.71216 21.3944 7.47877 23.4443 6.82899 25.8687L2.52982 41.9139C2.1161 43.4583 3.13206 45.0771 4.79453 45.5225L9.19579 46.7018L9.19598 46.7019L13.5971 47.8812C13.8834 47.9579 14.1742 47.9959 14.4623 47.9959C14.9639 47.9959 15.4572 47.8806 15.9034 47.6539C16.6395 47.2799 17.1578 46.6529 17.3626 45.8885L17.954 43.6813C17.9541 43.681 17.9543 43.6807 17.9543 43.6804C17.9543 43.6801 17.9543 43.6798 17.9544 43.6795L21.6619 29.8433C22.3116 27.4188 21.4022 24.5269 20.1231 23.2397C20.4453 21.2105 20.7132 19.2492 20.9025 17.5554C20.9031 17.5506 20.9037 17.5457 20.9042 17.5407C20.9989 16.692 21.0736 15.9114 21.1256 15.2228C21.5315 15.0239 21.8534 14.6588 21.9794 14.189L22.5261 12.1487C22.7535 11.2991 22.2474 10.4227 21.3981 10.1951ZM15.5515 45.4029C15.4861 45.6466 15.3095 45.8524 15.0539 45.9822C14.7647 46.1291 14.4196 46.1603 14.0822 46.07L9.68123 44.8908L9.68104 44.8907L5.27977 43.7113C4.62718 43.5365 4.19725 42.9355 4.34087 42.3991L4.6899 41.0964L15.9005 44.1004L15.5515 45.4029ZM16.3858 42.2893L5.17515 39.2854L8.39761 27.2595L19.6082 30.2634L16.3858 42.2893ZM19.995 28.4259L8.9811 25.4747C9.79401 23.87 11.4436 22.7088 12.1725 22.6904C12.5532 22.6808 12.8905 22.4418 13.0256 22.0856C13.5128 20.8009 14.008 19.5497 14.4872 18.3878H18.9174C18.7629 19.6465 18.5708 21.0227 18.3501 22.4442L18.1208 22.3828C17.6205 22.2487 17.1067 22.5456 16.9727 23.0457C16.8387 23.5459 17.1354 24.0599 17.6356 24.1939L18.7118 24.4822C19.3225 24.9704 20.0889 26.7132 19.995 28.4259ZM20.2253 13.4907C20.2179 13.4907 20.2106 13.4916 20.2032 13.4919C20.1963 13.4921 20.1895 13.4925 20.1827 13.493C20.1599 13.4944 20.1373 13.4966 20.1149 13.4996C20.1071 13.5006 20.0994 13.5015 20.0917 13.5027C20.0693 13.5063 20.0472 13.5108 20.0252 13.516C20.0188 13.5175 20.0122 13.5186 20.0059 13.5203C19.979 13.5272 19.9524 13.5352 19.9264 13.5445C19.9179 13.5475 19.9098 13.5511 19.9013 13.5543C19.8838 13.5611 19.8664 13.5682 19.8493 13.576C19.8387 13.5808 19.8284 13.5861 19.8181 13.5913C19.8034 13.5987 19.7889 13.6064 19.7746 13.6146C19.7646 13.6203 19.7545 13.6262 19.7447 13.6323C19.7298 13.6415 19.7153 13.6513 19.701 13.6614C19.6927 13.6672 19.6844 13.6727 19.6763 13.6788C19.6573 13.6931 19.6389 13.7081 19.621 13.7237C19.6182 13.7261 19.6152 13.7283 19.6125 13.7308C19.5914 13.7498 19.5713 13.7697 19.5519 13.7905C19.5479 13.7948 19.5442 13.7994 19.5403 13.8038C19.5256 13.8202 19.5113 13.8371 19.4977 13.8546C19.4922 13.8617 19.487 13.8691 19.4816 13.8764C19.4705 13.8916 19.4598 13.9072 19.4496 13.9231C19.4438 13.932 19.4382 13.9411 19.4328 13.9502C19.424 13.965 19.4157 13.9803 19.4077 13.9957C19.4022 14.0061 19.3968 14.0164 19.3917 14.027C19.3847 14.042 19.3783 14.0574 19.372 14.0727C19.3673 14.0841 19.3623 14.0952 19.3582 14.1068C19.3499 14.1295 19.3427 14.1527 19.3361 14.1763C19.3283 14.2044 19.3221 14.233 19.3168 14.2619C19.3157 14.268 19.314 14.2741 19.313 14.2802C19.3123 14.2841 19.3122 14.2884 19.3116 14.2925C19.3074 14.3208 19.3042 14.3491 19.3026 14.3773C19.2684 14.9911 19.2092 15.7121 19.1283 16.5129H15.2804C15.7651 15.399 16.2163 14.4233 16.6051 13.6541C16.6174 13.6298 16.6284 13.6045 16.6386 13.5788C16.6404 13.5742 16.6428 13.5697 16.6446 13.5651C16.6464 13.56 16.6478 13.5547 16.6496 13.5496C16.6599 13.5211 16.6689 13.4924 16.6764 13.4635C16.6825 13.4397 16.688 13.4159 16.6921 13.3922C16.6942 13.3806 16.6953 13.369 16.6969 13.3573C16.6992 13.3401 16.7016 13.3229 16.7029 13.3058C16.7038 13.2948 16.7042 13.2838 16.7047 13.2729C16.7055 13.2545 16.706 13.2362 16.7057 13.218C16.7055 13.2083 16.7053 13.1985 16.7049 13.1889C16.704 13.1686 16.7023 13.1486 16.7002 13.1286C16.6993 13.1208 16.6986 13.113 16.6975 13.1052C16.6944 13.0813 16.6901 13.0576 16.6851 13.0341C16.6842 13.0302 16.6837 13.0263 16.6828 13.0224C16.6764 12.9941 16.6687 12.9661 16.6597 12.9387C16.6591 12.937 16.6584 12.9354 16.6579 12.9338C16.6497 12.9094 16.6404 12.8853 16.6303 12.8618C16.6266 12.8532 16.6224 12.8447 16.6185 12.8362C16.6109 12.8198 16.603 12.8036 16.5944 12.7876C16.5891 12.7776 16.5834 12.7677 16.5777 12.7579C16.5695 12.7437 16.5608 12.7299 16.5518 12.7161C16.5453 12.7062 16.5388 12.6962 16.532 12.6865C16.5217 12.6719 16.5106 12.658 16.4994 12.644C16.4933 12.6362 16.4874 12.6282 16.4809 12.6206C16.4633 12.5999 16.4446 12.5801 16.4252 12.561C16.4193 12.5552 16.413 12.55 16.4069 12.5443C16.3917 12.5302 16.3762 12.5164 16.3599 12.5032C16.353 12.4976 16.3458 12.4921 16.3387 12.4867C16.3217 12.4737 16.3043 12.4613 16.2863 12.4494C16.2798 12.4452 16.2734 12.4408 16.2668 12.4367C16.2609 12.433 16.2551 12.4287 16.2491 12.4252L16.6667 10.8684L20.6425 11.9337L20.2253 13.4907Z" fill="#ADC9C1"/>
<path d="M15.4513 21.6705L15.4293 21.6647C14.9292 21.5314 14.4153 21.8286 14.2819 22.3289C14.1484 22.8292 14.4458 23.3429 14.9461 23.4763L14.9681 23.4822C15.049 23.5038 15.1303 23.5141 15.2102 23.5141C15.6245 23.5141 16.0036 23.2372 16.1155 22.8179C16.2489 22.3175 15.9515 21.8039 15.4513 21.6705Z" fill="#ADC9C1"/>
<path d="M15.4549 33.0103C14.9828 32.1925 14.2205 31.6077 13.3084 31.3633C13.0086 31.283 12.7003 31.2422 12.392 31.2422C10.796 31.2422 9.39268 32.3198 8.97943 33.8628C8.73502 34.7748 8.86037 35.7274 9.33249 36.545C9.80461 37.3627 10.5669 37.9476 11.4789 38.1919C11.7787 38.2723 12.087 38.313 12.3953 38.313C13.9912 38.313 15.3946 37.2354 15.808 35.6924C16.0525 34.7805 15.927 33.8279 15.4549 33.0103ZM13.997 35.2072C13.8028 35.9319 13.1443 36.438 12.3954 36.438C12.2509 36.438 12.1059 36.4188 11.9641 36.3808C11.5359 36.266 11.178 35.9914 10.9563 35.6075C10.7346 35.2235 10.6757 34.7763 10.7906 34.3479C10.9846 33.6232 11.6432 33.1171 12.3921 33.1171C12.5366 33.1171 12.6816 33.1363 12.8234 33.1743C13.2516 33.289 13.6095 33.5637 13.8313 33.9477C14.0528 34.3317 14.1117 34.779 13.997 35.2072Z" fill="#ADC9C1"/>
<path d="M45.4691 41.9138L41.1698 25.8687C40.5201 23.4441 38.2867 21.3942 36.5353 20.9192C36.0215 19.5791 35.5014 18.2811 35.0016 17.088C35.001 17.0864 35.0003 17.0849 34.9997 17.0833C34.4275 15.7174 33.8825 14.4898 33.4042 13.4945C33.4806 13.3905 33.5449 13.2781 33.594 13.1596C33.7433 12.7993 33.742 12.4095 33.5946 12.0679L33.0942 10.2005C33.0532 9.83775 32.865 9.50541 32.5625 9.27085C32.1647 8.96213 31.6109 8.85254 31.1171 8.98491L26.6005 10.195C26.1897 10.3052 25.8461 10.5693 25.6329 10.9387C25.4196 11.3081 25.3627 11.7379 25.4728 12.1487L26.0194 14.189C26.1454 14.6588 26.4673 15.024 26.8733 15.2227C26.9252 15.9109 26.9998 16.6911 27.0944 17.5394C27.095 17.5454 27.0958 17.5514 27.0965 17.5574C27.2857 19.2506 27.5535 21.211 27.8756 23.2395C26.5965 24.5267 25.6872 27.4188 26.3368 29.8432L30.6361 45.8882C30.841 46.6528 31.3593 47.2798 32.0954 47.6537C32.5416 47.8805 33.0349 47.9957 33.5365 47.9957C33.8245 47.9957 34.1154 47.9578 34.4016 47.881L43.2043 45.5223C43.9891 45.312 44.6581 44.8326 45.088 44.1724C45.5386 43.4804 45.6739 42.6783 45.4691 41.9138ZM27.9151 13.5036C27.9011 13.5014 27.887 13.4995 27.8728 13.4978C27.8567 13.4959 27.8406 13.4944 27.8243 13.4932C27.8132 13.4925 27.8021 13.4917 27.7909 13.4914C27.785 13.4912 27.7793 13.4905 27.7734 13.4904L27.3564 11.9334L31.3322 10.8684L31.7495 12.4252C31.7435 12.4289 31.7377 12.433 31.7318 12.4368C31.7252 12.441 31.7186 12.4453 31.7121 12.4496C31.6942 12.4614 31.6769 12.4738 31.66 12.4866C31.6528 12.4923 31.6455 12.4977 31.6384 12.5034C31.6224 12.5165 31.6071 12.5301 31.5921 12.544C31.5859 12.5498 31.5793 12.5554 31.5732 12.5613C31.554 12.5802 31.5354 12.6 31.5179 12.6204C31.5111 12.6284 31.5049 12.6369 31.4983 12.6452C31.4875 12.6587 31.4768 12.6723 31.4668 12.6862C31.4597 12.6962 31.4531 12.7064 31.4464 12.7167C31.4376 12.7301 31.429 12.7436 31.421 12.7575C31.4151 12.7675 31.4093 12.7777 31.4038 12.7881C31.3954 12.8037 31.3877 12.8196 31.3802 12.8356C31.3761 12.8444 31.3717 12.8531 31.368 12.862C31.3582 12.8851 31.3492 12.9086 31.3411 12.9324C31.3403 12.9346 31.3394 12.9367 31.3387 12.9389C31.3297 12.9663 31.3222 12.9941 31.3157 13.0222C31.3147 13.0266 31.3141 13.0309 31.3132 13.0352C31.3083 13.0582 31.3041 13.0816 31.3009 13.1051C31.2998 13.1131 31.2992 13.1211 31.2982 13.1291C31.2961 13.1489 31.2945 13.1688 31.2936 13.1888C31.2931 13.1986 31.2928 13.2084 31.2926 13.2183C31.2924 13.2364 31.2929 13.2545 31.2938 13.2727C31.2942 13.2839 31.2947 13.2949 31.2954 13.306C31.2968 13.3232 31.2992 13.3402 31.3015 13.3574C31.3031 13.369 31.3042 13.3807 31.3064 13.3923C31.3108 13.4172 31.3162 13.4421 31.3228 13.4669C31.3296 13.493 31.338 13.5188 31.3472 13.5445C31.3496 13.5514 31.3515 13.5586 31.354 13.5654C31.3552 13.5683 31.3567 13.5711 31.3578 13.574C31.3687 13.6017 31.3806 13.6288 31.3939 13.655C31.7827 14.424 32.2337 15.3994 32.7183 16.5129H28.8705C28.7896 15.7121 28.7303 14.9911 28.6962 14.3774C28.6946 14.349 28.6914 14.3204 28.6871 14.2918C28.6866 14.288 28.6864 14.2841 28.6858 14.2804C28.6848 14.2742 28.6831 14.268 28.6819 14.2618C28.6769 14.2342 28.6712 14.2069 28.6639 14.1801C28.657 14.155 28.6493 14.1305 28.6404 14.1064C28.6366 14.0957 28.6319 14.0854 28.6276 14.0748C28.6209 14.0584 28.6141 14.042 28.6066 14.0261C28.6019 14.0163 28.5968 14.0066 28.5917 13.9969C28.5833 13.9806 28.5745 13.9646 28.5654 13.949C28.5602 13.9403 28.5549 13.9319 28.5496 13.9235C28.5391 13.907 28.528 13.891 28.5165 13.8754C28.5113 13.8682 28.5063 13.861 28.5009 13.8541C28.4875 13.8369 28.4736 13.8204 28.4592 13.8043C28.4547 13.7993 28.4506 13.7942 28.4461 13.7893C28.4273 13.7691 28.4077 13.7497 28.3872 13.7314C28.3802 13.725 28.3726 13.7193 28.3654 13.7131C28.3521 13.7018 28.3389 13.6907 28.3249 13.6803C28.3133 13.6714 28.3011 13.6632 28.289 13.6549C28.2791 13.6482 28.2694 13.6416 28.2594 13.6353C28.2453 13.6264 28.2309 13.6178 28.2162 13.6097C28.2082 13.6052 28.2 13.601 28.1919 13.5966C28.1754 13.5881 28.1589 13.5798 28.1421 13.5722C28.1369 13.5699 28.1318 13.568 28.1266 13.5657C28.0699 13.5415 28.0105 13.523 27.949 13.5104C27.9378 13.5081 27.9265 13.5056 27.9151 13.5036ZM29.2874 24.4822L30.3635 24.1939C30.8636 24.0599 31.1604 23.5458 31.0264 23.0458C30.8923 22.5457 30.3781 22.2487 29.8782 22.3829L29.649 22.4443C29.4283 21.0226 29.2362 19.6464 29.0816 18.3878H33.512C33.9912 19.5497 34.4865 20.8009 34.9736 22.0857C35.1087 22.4417 35.4458 22.6808 35.8266 22.6904C36.5554 22.7087 38.205 23.8699 39.0179 25.4747L28.004 28.426C27.91 26.7131 28.6765 24.9703 29.2874 24.4822ZM31.6131 42.2894L28.3907 30.2634L39.6013 27.2594L42.8236 39.2854L31.6131 42.2894ZM43.5168 43.1494C43.3397 43.4213 43.0565 43.6209 42.7192 43.7113L33.9166 46.0699C33.5792 46.1603 33.2343 46.1292 32.945 45.9822C32.6894 45.8523 32.5128 45.6466 32.4474 45.4029L32.0984 44.1003L43.309 41.0964L43.658 42.3991C43.7233 42.6428 43.6732 42.9093 43.5168 43.1494Z" fill="#ADC9C1"/>
<path d="M33.7166 22.3281C33.5827 21.828 33.0689 21.5309 32.5686 21.665L32.5467 21.6709C32.0466 21.8049 31.7498 22.3189 31.8837 22.819C31.9958 23.2379 32.3746 23.5142 32.7887 23.5142C32.8688 23.5142 32.9506 23.5038 33.0318 23.482L33.0536 23.4761C33.5538 23.3422 33.8506 22.8281 33.7166 22.3281Z" fill="#ADC9C1"/>
<path d="M39.0151 33.8629C38.6018 32.3198 37.1983 31.2422 35.6024 31.2422C35.2942 31.2422 34.9858 31.283 34.686 31.3633C33.7739 31.6076 33.0117 32.1925 32.5395 33.0103C32.0675 33.828 31.9421 34.7806 32.1864 35.6927C32.5998 37.2354 34.0032 38.3131 35.599 38.3132H35.5992C35.9074 38.3132 36.2157 38.2724 36.5155 38.1921C37.4275 37.9478 38.1898 37.3629 38.6619 36.5452C39.1341 35.7274 39.2595 34.7749 39.0151 33.8629ZM37.0383 35.6076C36.8166 35.9916 36.4586 36.2662 36.0305 36.381C35.8888 36.4189 35.7437 36.4382 35.5993 36.4382H35.5992C34.8505 36.4382 34.1917 35.932 33.9975 35.2074C33.8828 34.7792 33.9416 34.3319 34.1633 33.9479C34.385 33.5639 34.7429 33.2893 35.1712 33.1745C35.3128 33.1365 35.458 33.1173 35.6024 33.1173C36.3512 33.1173 37.0099 33.6234 37.204 34.3482C37.3188 34.7764 37.2599 35.2236 37.0383 35.6076Z" fill="#ADC9C1"/>
<path d="M24 0C23.4822 0 23.0625 0.419717 23.0625 0.937496V3.44661C23.0625 3.96439 23.4822 4.38411 24 4.38411C24.5177 4.38411 24.9375 3.96439 24.9375 3.44661V0.937496C24.9375 0.419717 24.5178 0 24 0Z" fill="#ADC9C1"/>
<path d="M20.8588 4.69877L19.5842 2.52585C19.3222 2.07922 18.7477 1.9295 18.3012 2.19153C17.8546 2.45347 17.7049 3.02787 17.9669 3.4745L19.2415 5.64743C19.4161 5.94499 19.7293 6.11074 20.051 6.11074C20.2122 6.11074 20.3755 6.06921 20.5245 5.98174C20.9711 5.71971 21.1207 5.1453 20.8588 4.69877Z" fill="#ADC9C1"/>
<path d="M29.6867 2.19151C29.24 1.92948 28.6655 2.0793 28.4036 2.52582L27.129 4.69875C26.8671 5.14538 27.0167 5.71978 27.4633 5.98172C27.6124 6.06919 27.7756 6.11072 27.9367 6.11072C28.2585 6.11072 28.5717 5.94497 28.7464 5.64741L30.021 3.47448C30.2829 3.02785 30.1332 2.45345 29.6867 2.19151Z" fill="#ADC9C1"/>
</svg>
