<svg width="32" height="33" viewBox="0 0 32 33" fill="none" xmlns="http://www.w3.org/2000/svg">
<g clip-path="url(#clip0_587_3156)">
<path d="M29 28.4278H3.00002C1.34573 28.4278 0 27.0821 0 25.4278L0 20.4278C0 19.875 0.447252 19.4278 1.00001 19.4278C2.6543 19.4278 4.00002 18.082 4.00002 16.4277C4.00002 14.7735 2.6543 13.4277 1.00001 13.4277C0.447252 13.4278 0 12.9805 0 12.4278L0 7.42775C0 5.77346 1.34573 4.42773 3.00002 4.42773H29C30.6543 4.42773 32.0001 5.77346 32.0001 7.42775V12.4278C32.0001 12.9805 31.5528 13.4278 31.0001 13.4278C29.3458 13.4278 28 14.7735 28 16.4278C28 18.0821 29.3458 19.4278 31.0001 19.4278C31.5528 19.4278 32.0001 19.8751 32.0001 20.4278V25.4279C32 27.0821 30.6543 28.4278 29 28.4278ZM2.00001 21.3272V25.4278C2.00001 25.9795 2.44827 26.4278 3.00002 26.4278H29C29.5518 26.4278 30.0001 25.9795 30.0001 25.4278V21.3272C27.7208 20.8624 26 18.8428 26 16.4277C26 14.0127 27.7207 11.9932 30.0001 11.5283V7.42775C30.0001 6.87601 29.5518 6.42775 29 6.42775H3.00002C2.44827 6.42775 2.00001 6.87601 2.00001 7.42775V11.5284C4.2793 11.9932 6.00004 14.0127 6.00004 16.4278C6.00004 18.8429 4.2793 20.8624 2.00001 21.3272Z" fill="#427368"/>
<path d="M12.0645 24.0625L18.0623 8.06816L19.935 8.7704L13.9371 24.7647L12.0645 24.0625Z" fill="#427368"/>
<path d="M11.2696 16.7637C9.61526 16.7637 8.26953 15.418 8.26953 13.7637C8.26953 12.1094 9.61526 10.7637 11.2696 10.7637C12.9238 10.7637 14.2696 12.1094 14.2696 13.7637C14.2696 15.418 12.9238 16.7637 11.2696 16.7637ZM11.2696 12.7637C10.7178 12.7637 10.2695 13.2119 10.2695 13.7637C10.2695 14.3154 10.7178 14.7637 11.2696 14.7637C11.8213 14.7637 12.2696 14.3154 12.2696 13.7637C12.2696 13.2119 11.8213 12.7637 11.2696 12.7637Z" fill="#427368"/>
<path d="M21.6055 22.9668C19.9512 22.9668 18.6055 21.6211 18.6055 19.9668C18.6055 18.3125 19.9512 16.9668 21.6055 16.9668C23.2598 16.9668 24.6055 18.3125 24.6055 19.9668C24.6055 21.6211 23.2598 22.9668 21.6055 22.9668ZM21.6055 18.9668C21.0537 18.9668 20.6055 19.4151 20.6055 19.9668C20.6055 20.5186 21.0537 20.9668 21.6055 20.9668C22.1572 20.9668 22.6055 20.5186 22.6055 19.9668C22.6055 19.4151 22.1572 18.9668 21.6055 18.9668Z" fill="#427368"/>
</g>
<defs>
<clipPath id="clip0_587_3156">
<rect width="32" height="32" fill="white" transform="translate(0 0.427734)"/>
</clipPath>
</defs>
</svg>
