<svg width="32" height="32" viewBox="0 0 32 32" fill="none" xmlns="http://www.w3.org/2000/svg">
<g clip-path="url(#clip0_603_2930)">
<path d="M24.1684 19.0254C21.9442 19.0254 20.1348 20.8348 20.1348 23.059C20.1348 25.2832 21.9442 27.0926 24.1684 27.0926C26.393 27.0926 28.202 25.2832 28.202 23.059C28.202 20.8348 26.3926 19.0254 24.1684 19.0254ZM24.1684 25.0758C23.0561 25.0758 22.1516 24.1713 22.1516 23.059C22.1516 21.9468 23.0561 21.0422 24.1684 21.0422C25.2806 21.0422 26.1852 21.9468 26.1852 23.059C26.1852 24.1713 25.2806 25.0758 24.1684 25.0758Z" fill="white"/>
<path d="M10.3871 19.0254C8.16295 19.0254 6.35352 20.8348 6.35352 23.059C6.35352 25.2832 8.16295 27.0926 10.3871 27.0926C12.6113 27.0926 14.4208 25.2832 14.4208 23.059C14.4208 20.8348 12.6113 19.0254 10.3871 19.0254ZM10.3871 25.0758C9.27489 25.0758 8.37033 24.1713 8.37033 23.059C8.37033 21.9468 9.27489 21.0422 10.3871 21.0422C11.4991 21.0422 12.404 21.9468 12.404 23.059C12.404 24.1713 11.4994 25.0758 10.3871 25.0758Z" fill="white"/>
<path d="M26.884 7.47914C26.7126 7.13864 26.364 6.92383 25.9828 6.92383H20.6719V8.94064H25.3609L28.1068 14.4021L29.9092 13.4959L26.884 7.47914Z" fill="white"/>
<path d="M21.142 22.084H13.5117V24.1008H21.142V22.084Z" fill="white"/>
<path d="M7.36155 22.084H3.8658C3.3088 22.084 2.85742 22.5354 2.85742 23.0924C2.85742 23.6494 3.30886 24.1007 3.8658 24.1007H7.36161C7.91861 24.1007 8.36998 23.6493 8.36998 23.0924C8.36998 22.5354 7.91855 22.084 7.36155 22.084Z" fill="white"/>
<path d="M31.7885 15.92L29.805 13.3653C29.6144 13.1193 29.3203 12.9754 29.0087 12.9754H21.6809V5.91658C21.6809 5.35958 21.2295 4.9082 20.6725 4.9082H3.8658C3.3088 4.9082 2.85742 5.35964 2.85742 5.91658C2.85742 6.47352 3.30886 6.92495 3.8658 6.92495H19.6641V13.9838C19.6641 14.5408 20.1155 14.9921 20.6725 14.9921H28.5149L29.9834 16.8839V22.0846H27.1935C26.6365 22.0846 26.1851 22.536 26.1851 23.093C26.1851 23.65 26.6365 24.1013 27.1935 24.1013H30.9918C31.5488 24.1013 32.0002 23.6499 32.0002 23.093V16.5385C32.0002 16.3146 31.9256 16.0968 31.7885 15.92Z" fill="white"/>
<path d="M7.29355 16.9746H2.65486C2.09786 16.9746 1.64648 17.426 1.64648 17.983C1.64648 18.54 2.09792 18.9914 2.65486 18.9914H7.29348C7.85048 18.9914 8.30186 18.5399 8.30186 17.983C8.30192 17.426 7.85048 16.9746 7.29355 16.9746Z" fill="white"/>
<path d="M9.61344 13.0078H1.00838C0.451438 13.0078 0 13.4592 0 14.0162C0 14.5732 0.451438 15.0246 1.00838 15.0246H9.61344C10.1704 15.0246 10.6218 14.5732 10.6218 14.0162C10.6218 13.4593 10.1704 13.0078 9.61344 13.0078Z" fill="white"/>
<path d="M11.2599 9.04297H2.65486C2.09786 9.04297 1.64648 9.49441 1.64648 10.0513C1.64648 10.6083 2.09792 11.0597 2.65486 11.0597H11.2599C11.8169 11.0597 12.2683 10.6083 12.2683 10.0513C12.2684 9.49441 11.8169 9.04297 11.2599 9.04297Z" fill="white"/>
</g>
<defs>
<clipPath id="clip0_603_2930">
<rect width="32" height="32" fill="white"/>
</clipPath>
</defs>
</svg>
