<svg width="80" height="80" viewBox="0 0 80 80" fill="none" xmlns="http://www.w3.org/2000/svg">
<path d="M39.9973 80C28.9547 80 18.9553 75.522 11.7163 68.2837C4.47801 61.0454 0 51.0461 0 39.9973C0 28.9485 4.47801 18.9553 11.7163 11.7163C18.9546 4.47801 28.9539 0 39.9973 0C51.0407 0 61.0446 4.47801 68.2837 11.7163C75.522 18.9546 80 28.9539 80 39.9973C80 51.0407 75.522 61.0447 68.2837 68.2837C61.0454 75.522 51.0461 80 39.9973 80ZM71.5633 34.0493C72.5757 32.2651 71.9538 29.998 70.1704 28.9801C69.158 30.7642 69.78 33.0361 71.5633 34.0493ZM8.43592 34.0493C7.41808 32.2651 8.04545 29.998 9.82415 28.9801C10.842 30.7642 10.22 33.0361 8.43592 34.0493ZM14.9805 41.9465C13.9063 41.9465 13.032 41.0776 13.032 39.9981C13.032 38.9185 13.9063 38.055 14.9805 38.055C16.0546 38.055 16.9289 38.9239 16.9289 39.9981C16.9289 41.0722 16.0546 41.9465 14.9805 41.9465ZM65.0188 41.9465C63.9446 41.9465 63.0703 41.0776 63.0703 39.9981C63.0703 38.9185 63.9446 38.055 65.0188 38.055C66.0929 38.055 66.9672 38.9239 66.9672 39.9981C66.9672 41.0722 66.0929 41.9465 65.0188 41.9465ZM9.94762 57.4981C9.19679 56.1924 9.64435 54.6189 10.9446 53.8735C12.2657 53.1126 13.8392 53.5548 14.5946 54.8759C15.016 55.6059 15.0731 56.2279 14.8616 57.025L14.8562 57.0505L13.7921 56.8452L13.7975 56.8144C13.9156 56.2796 13.921 55.8991 13.6432 55.4161C13.2064 54.6606 12.2812 54.5263 11.5558 54.943C10.8358 55.3597 10.4816 56.2233 10.9184 56.9787C11.2008 57.4726 11.5658 57.6624 12.0852 57.8322L12.116 57.8422L11.7919 58.8963L11.7611 58.8909C10.9022 58.6903 10.3882 58.2635 9.94608 57.4981H9.94762ZM15.685 62.0887L15.1194 64.2425L14.2096 63.1938L14.7189 61.2862L14.1787 60.6696L12.9502 61.7392L12.1739 60.8448L16.0762 57.4618L17.6188 59.2505C17.9784 59.6618 18.2508 60.1758 18.2099 60.7314C18.179 61.189 17.9321 61.564 17.5933 61.8572C17.0223 62.3511 16.3494 62.4383 15.6858 62.0887H15.685ZM19.7255 66.7211L18.0594 65.4154L16.9899 66.0273L16.0338 65.2765L20.9848 62.5571L21.8329 63.22L20.3629 68.6749L19.3859 67.9087L19.7255 66.7211ZM24.9289 66.6385L24.4196 67.5282L26.5324 68.7413L25.9922 69.6774L23.8794 68.4643L22.8978 70.1766L21.87 69.5855L24.4458 65.1129L27.8643 67.0768L27.3241 68.0175L24.9281 66.6401L24.9289 66.6385ZM29.4887 68.7722L28.0186 68.2737L28.3682 67.235L32.4295 68.6078L32.0799 69.6511L30.6099 69.1526L29.3042 73.0033L28.1838 72.6228L29.4894 68.7722H29.4887ZM38.403 71.9492C38.9687 72.2316 39.2719 72.6174 39.2202 73.2857C39.133 74.3807 38.1152 74.6377 37.1737 74.5659L34.7268 74.3807L35.1172 69.229L37.5079 69.4142C37.9863 69.4505 38.5003 69.5994 38.8244 69.9744C39.0559 70.2468 39.1431 70.5501 39.1122 70.9051C39.0759 71.399 38.8298 71.7331 38.403 71.9484V71.9492ZM44.1203 72.6228L45.5132 74.3606L44.125 74.4687L42.9011 72.9215L42.0839 72.9886L42.2074 74.613L41.0252 74.7002L40.6347 69.5539L42.9891 69.3741C43.5339 69.3332 44.1095 69.4204 44.5363 69.7854C44.8804 70.0833 45.0348 70.5054 45.071 70.9522C45.1274 71.703 44.7932 72.2987 44.1203 72.6228ZM47.3181 69.7183L47.5851 70.6543L49.8932 69.996L50.1864 71.0139L47.873 71.6721L48.1508 72.6437L50.8084 71.8882L51.1017 72.906L47.3073 73.9856L45.8936 69.0191L49.6571 67.9496L49.9449 68.9728L47.3181 69.7183ZM53.8882 69.8571L53.338 66.3252L54.2323 65.8676L56.7773 68.3763L56.1553 64.8961L57.2604 64.3304L58.0621 69.7591L57.1523 70.2268L54.6591 67.8307L55.1421 71.2546L54.237 71.7223L50.2937 67.8971L51.425 67.316L53.8874 69.8556L53.8882 69.8571ZM59.1988 63.8265L59.8362 64.5565L61.6512 62.9831L62.3449 63.7849L60.5299 65.3583L61.1882 66.1246L63.2809 64.3096L63.9747 65.1114L60.9929 67.6972L57.6153 63.7949L60.5716 61.2345L61.2653 62.0363L59.1988 63.825V63.8265ZM66.0983 60.0322L68.3092 60.2892L67.3994 61.3379L65.4409 61.1064L64.9061 61.723L66.14 62.7925L65.3637 63.6869L61.4613 60.3092L63.0085 58.5205C63.3635 58.1092 63.8312 57.7651 64.3914 57.7234C64.849 57.6925 65.2549 57.8831 65.5944 58.1756C66.1647 58.6694 66.3453 59.3269 66.0983 60.0314V60.0322ZM68.1132 56.6137L64.4114 56.7735L65.1005 55.5704L67.4449 55.5395L66.309 53.473L66.9827 52.3062L68.6842 55.5758L70.4683 56.5991L69.8772 57.6269L68.1139 56.6145L68.1132 56.6137ZM14.9758 59.9813L15.7004 60.8139C15.9983 61.1581 16.405 61.297 16.7746 60.9783C17.1651 60.6442 17.047 60.2275 16.7437 59.8833L16.0346 59.0607L14.9758 59.9813ZM19.0472 64.8498L20.0395 65.6315L20.4971 64.0326L19.0472 64.8498ZM36.1158 71.3735L37.1128 71.4507C37.4724 71.4761 37.8945 71.4298 37.9254 70.9876C37.9562 70.5972 37.5912 70.4683 37.2625 70.4428L36.193 70.3603L36.1158 71.3727V71.3735ZM35.9561 73.4246L37.2571 73.5226C37.6221 73.5481 38.0234 73.4817 38.0542 73.0442C38.0905 72.6074 37.653 72.4885 37.2988 72.4631L36.0394 72.3651L35.9568 73.4238L35.9561 73.4246ZM42.0021 71.9337L43.1071 71.8512C43.5547 71.8149 43.9143 71.5687 43.878 71.0849C43.8371 70.5709 43.4359 70.422 42.9783 70.4529L41.8987 70.5354L42.0013 71.9337H42.0021ZM64.1082 61.0346L64.8328 60.1966C65.126 59.8571 65.2078 59.4303 64.8428 59.1116C64.4523 58.7721 64.0611 58.9473 63.7578 59.2968L63.0487 60.114L64.1074 61.0346H64.1082ZM13.5104 21.7781C14.0244 21.4131 14.5074 21.3306 15.0731 21.6956C15.9983 22.2867 15.7359 23.3099 15.2328 24.1016L13.9063 26.1682L9.56179 23.3817L10.852 21.3614C11.1144 20.9602 11.4894 20.5751 11.9725 20.4717C12.3221 20.3945 12.6307 20.4663 12.9286 20.6569C13.3453 20.9239 13.5197 21.2997 13.5097 21.7774L13.5104 21.7781ZM14.8524 17.7832L15.5569 18.4515L17.2175 16.7136L17.9838 17.4436L16.3232 19.1861L17.0532 19.8798L18.9654 17.875L19.7316 18.6104L17.0123 21.4641L13.2751 17.9012L15.9744 15.0738L16.7406 15.8038L14.8539 17.7832H14.8524ZM19.0935 13.7836L19.6946 14.5445L21.5813 13.059L22.2396 13.897L20.3474 15.3825L20.9694 16.1742L23.1494 14.4619L23.8022 15.2945L20.7024 17.7369L17.51 13.6756L20.5843 11.2595L21.2426 12.0921L19.0935 13.7836ZM26.99 11.5265L28.9439 12.5906L27.71 13.2226L25.9822 12.2765L25.2522 12.6469L25.9976 14.1015L24.9389 14.6417L22.5891 10.0456L24.692 8.97146C25.175 8.71989 25.7407 8.58099 26.2754 8.75076C26.7076 8.88966 27.0155 9.21839 27.2161 9.61966C27.5657 10.2933 27.4831 10.9662 26.99 11.5272V11.5265ZM34.5061 11.1715C33.0206 11.4339 31.6941 10.4878 31.4317 9.00696C31.1647 7.50605 32.11 6.17955 33.6117 5.90715C34.4397 5.76285 35.0408 5.91718 35.7245 6.38559L35.7454 6.40102L35.1898 7.33166L35.1643 7.31622C34.7013 7.02839 34.3471 6.89489 33.7969 6.99212C32.938 7.14645 32.5013 7.96906 32.6456 8.79166C32.7945 9.61426 33.489 10.2362 34.3471 10.0819C34.9027 9.98389 35.2106 9.70686 35.5447 9.26932L35.5602 9.24849L36.4499 9.91136L36.4345 9.93682C35.9514 10.6722 35.3757 11.0164 34.5068 11.1707L34.5061 11.1715ZM40.1354 10.6529C38.6083 10.6167 37.4315 9.45993 37.4724 7.91813C37.5133 6.37633 38.7734 5.28055 40.2898 5.31682C41.8169 5.35772 42.9937 6.51445 42.9528 8.05703C42.9165 9.5942 41.6518 10.6946 40.1354 10.6529ZM47.3953 8.38576L49.1586 6.60706L50.3871 6.88949L49.2249 11.9223L48.0782 11.6553L48.8082 8.48299L46.9886 10.2208L46.9269 10.2108L46.058 7.87183L45.328 11.0233L44.1967 10.761L45.3589 5.72812L46.5827 6.01055L47.3953 8.38576ZM52.3564 11.6036L51.729 12.9965L50.6495 12.508L52.7723 7.80392L54.7 8.67822C55.7232 9.14123 56.2472 10.0765 55.7641 11.1406C55.2656 12.2511 54.1343 12.4054 53.1065 11.9424L52.3556 11.6029L52.3564 11.6036ZM58.3245 15.5106L56.6021 14.2867L55.5588 14.9496L54.5719 14.2451L59.384 11.2888L60.2629 11.9162L59.0545 17.4328L58.0421 16.7129L58.3245 15.5098V15.5106ZM63.7231 19.2123L65.9494 17.0887L66.7566 17.9321L63.0193 21.4949L62.3302 20.7703L62.9576 16.8271L60.6596 19.0171L59.8524 18.1736L63.585 14.6108L64.3304 15.3925L63.7239 19.2123H63.7231ZM66.3908 22.8623L67.9534 19.5056L68.6989 20.6723L67.6502 22.7697L70.0045 22.708L70.7345 23.8439L67.0482 23.8493L65.3158 24.9597L64.6784 23.9627L66.3908 22.8623ZM11.9162 23.5206L12.461 22.6771C12.6508 22.3739 12.8105 21.978 12.4401 21.7411C12.106 21.5304 11.8236 21.7874 11.643 22.0652L11.0619 22.975L11.9154 23.5198L11.9162 23.5206ZM13.6493 24.631L14.3485 23.536C14.5491 23.2227 14.6826 22.8423 14.3122 22.6054C13.9418 22.3638 13.6339 22.6926 13.4379 22.9958L12.7542 24.06L13.6486 24.6302L13.6493 24.631ZM24.7691 11.7117L25.7561 11.2078C26.1574 11.0025 26.3935 10.6367 26.1728 10.2054C25.9367 9.74776 25.5045 9.75779 25.0986 9.96923L24.1325 10.4631L24.7699 11.7124L24.7691 11.7117ZM40.1817 9.55793C41.0715 9.57876 41.6934 8.88966 41.7189 8.02616C41.7397 7.16266 41.1224 6.43729 40.2435 6.41722C39.3591 6.39176 38.7318 7.08009 38.7063 7.94899C38.6855 8.81249 39.3028 9.53246 40.1817 9.55793ZM52.7986 10.6375L53.5749 10.9925C54.007 11.1831 54.4646 11.1105 54.6699 10.6583C54.8859 10.1753 54.6135 9.8149 54.1714 9.61966L53.4105 9.2755L52.7986 10.6375ZM57.559 13.6756L58.5869 14.4056L58.9619 12.7858L57.5582 13.6756H57.559ZM39.1076 21.6238V15.8918C33.5963 16.0924 28.5634 18.1335 24.5994 21.4239C20.5689 24.7653 17.6489 29.3976 16.4613 34.6882C17.4737 34.966 18.3689 35.5316 19.0572 36.2871C19.9516 37.264 20.4964 38.5697 20.4964 39.9988C20.4964 41.428 19.9516 42.7337 19.0572 43.716C18.3681 44.4715 17.4737 45.0371 16.4613 45.3149C17.6489 50.6047 20.5689 55.2371 24.5994 58.5792C28.7741 62.044 34.1411 64.1267 39.9965 64.1267C45.852 64.1267 51.2243 62.0447 55.3991 58.5792C59.4295 55.2378 62.3495 50.6055 63.5371 45.3149C62.5247 45.0371 61.6296 44.4715 60.9412 43.716C60.0469 42.7344 59.4967 41.4334 59.4967 39.9988C59.4967 38.5643 60.0469 37.264 60.9412 36.2871C61.6303 35.5316 62.5247 34.966 63.5371 34.6882C62.3495 29.3984 59.4295 24.766 55.3991 21.4239C51.435 18.1335 46.4022 16.0924 40.8909 15.8918V21.65C45.0294 21.8707 48.7565 23.6394 51.5021 26.3904C54.4476 29.3359 56.2734 33.4026 56.2734 37.896V38.7904H55.379C55.1375 38.7904 54.896 38.785 54.6591 38.775C54.8188 39.9163 54.8443 41.083 54.7308 42.2552C54.5765 43.8541 54.1652 45.453 53.4761 47.011L53.1419 47.7719L52.3602 47.4841C52.0878 47.3861 51.8154 47.2834 51.5531 47.1708C51.4605 48.086 51.2807 49.0012 51.0183 49.9009C50.6479 51.1757 50.1085 52.4305 49.3885 53.6335L48.9618 54.3427L48.2218 53.9677C47.4509 53.5772 46.7209 53.1396 46.0372 52.662C45.487 53.5926 44.7979 54.4924 43.9753 55.3559C42.9983 56.3838 41.837 57.3507 40.4842 58.2296L39.9958 58.5537L39.5073 58.2296C38.1607 57.3507 36.9986 56.3838 36.0216 55.3559C35.199 54.4924 34.5099 53.5926 33.9597 52.662C33.276 53.1404 32.546 53.5772 31.7751 53.9677L31.0351 54.3427L30.6084 53.6335C29.8884 52.4305 29.349 51.1757 28.9786 49.9063C28.7116 49.0012 28.5364 48.0867 28.4438 47.1715C28.1815 47.285 27.9091 47.3876 27.6367 47.4848L26.855 47.7727L26.5154 47.0118C25.8317 45.4538 25.4204 43.8549 25.2661 42.256C25.1526 41.0838 25.1789 39.917 25.3378 38.7757C25.0963 38.7858 24.8594 38.7912 24.6179 38.7912H23.7235V37.8968C23.7235 33.4034 25.5485 29.3367 28.4894 26.3912C31.2396 23.6409 34.9668 21.8723 39.1052 21.6508V21.6253L39.1076 21.6238ZM39.9973 65.9139C33.7151 65.9139 27.9515 63.6722 23.4635 59.945C18.9036 56.1615 15.6595 50.8354 14.5283 44.7686L14.3531 43.807L15.3246 43.7198C16.2761 43.6326 17.1288 43.1851 17.7407 42.5168C18.3419 41.8539 18.7123 40.9696 18.7123 39.9981C18.7123 39.0265 18.3419 38.1476 17.7407 37.484C17.1288 36.8157 16.2753 36.3681 15.3246 36.2809L14.3531 36.1883L14.5283 35.2322C15.6595 29.1661 18.9036 23.8393 23.4635 20.0558C27.9515 16.3286 33.7143 14.0869 39.9973 14.0869C46.2802 14.0869 52.0477 16.3286 56.5358 20.0558C61.0956 23.8393 64.3397 29.1653 65.471 35.2322L65.6461 36.1883L64.6746 36.2809C63.7231 36.3681 62.8704 36.8157 62.2585 37.484C61.6574 38.1468 61.2869 39.0312 61.2869 39.9981C61.2869 40.965 61.6574 41.8539 62.2585 42.5168C62.8704 43.1851 63.7239 43.6326 64.6746 43.7198L65.6461 43.807L65.471 44.7686C64.3397 50.8347 61.0956 56.1615 56.5358 59.945C52.0477 63.6722 46.2795 65.9139 39.9973 65.9139ZM35.3804 51.5546C35.8897 52.4444 36.5317 53.3079 37.3134 54.1305C38.0743 54.9276 38.9687 55.6885 39.9973 56.4077C41.0306 55.6877 41.9249 54.9268 42.6858 54.1305C43.4675 53.3079 44.1095 52.4444 44.6188 51.5546C44.439 51.4003 44.2693 51.246 44.0995 51.087C43.0971 50.151 42.2336 49.1177 41.5136 48.0127C41.1849 48.2542 40.8353 48.4857 40.475 48.7172L39.9965 49.0205L39.5181 48.7172C39.1631 48.4857 38.8135 48.2542 38.4794 48.0127C37.7648 49.1177 36.9013 50.1517 35.8989 51.087C35.7292 51.2467 35.5594 51.4003 35.3796 51.5546H35.3804ZM45.9399 43.5346C45.3689 44.3981 44.6806 45.2362 43.8734 46.038C43.5755 46.3312 43.2568 46.6244 42.9273 46.9069C43.5856 47.9455 44.3873 48.9171 45.318 49.7914C46.1923 50.6086 47.1792 51.344 48.2789 51.9713C48.7156 51.1333 49.0606 50.2744 49.3121 49.4063C49.6054 48.3985 49.7751 47.3753 49.8315 46.3574C48.4996 45.6375 47.2973 44.784 46.2378 43.8179C46.1398 43.7253 46.0372 43.6326 45.9399 43.5354V43.5346ZM37.0719 46.9076C36.7432 46.6252 36.4245 46.332 36.1258 46.0387C35.3186 45.237 34.6249 44.3989 34.0593 43.5354C33.9566 43.6334 33.8586 43.726 33.7614 43.8179C32.7027 44.7848 31.4996 45.6375 30.1677 46.3574C30.2194 47.3753 30.3938 48.3985 30.6871 49.4063C30.9386 50.2752 31.2836 51.1341 31.7203 51.9713C32.8207 51.344 33.8077 50.6093 34.6812 49.7914C35.6119 48.9171 36.4137 47.9455 37.0719 46.9069V46.9076ZM35.3132 42.1927C35.8534 43.0824 36.5417 43.9405 37.3752 44.7686C38.126 45.5086 38.9995 46.2232 39.9973 46.8968C40.9943 46.2232 41.874 45.5086 42.6241 44.7686C43.4567 43.9405 44.1458 43.0824 44.686 42.1927C43.8842 41.2412 43.2051 40.2134 42.6503 39.1338C41.9975 39.7095 41.2775 40.2597 40.4966 40.7844L39.9981 41.1185L39.5042 40.7844C38.7225 40.2597 38.0033 39.7102 37.3505 39.1338C36.7949 40.2134 36.1112 41.242 35.3148 42.1927H35.3132ZM45.6984 35.5972C45.2153 36.3635 44.6497 37.1089 43.9861 37.8281C44.7878 39.5505 45.9554 41.144 47.4408 42.496C48.7727 43.7144 50.3608 44.7377 52.1704 45.4986C52.5871 44.3673 52.8487 43.226 52.9568 42.0847C53.0702 40.9125 53.0239 39.7349 52.8279 38.589C50.1857 38.1723 47.7534 37.1236 45.6976 35.5972H45.6984ZM36.0078 37.8281C35.3495 37.1082 34.7792 36.3627 34.3008 35.5972C32.2443 37.1244 29.8128 38.1731 27.1698 38.589C26.9746 39.7357 26.9283 40.9125 27.0409 42.0847C27.149 43.226 27.4059 44.3673 27.8273 45.4986C29.6368 44.7377 31.2257 43.7144 32.5568 42.496C34.0423 41.144 35.2044 39.5505 36.0062 37.8281H36.0078ZM35.6836 34.4505C36.1567 35.2369 36.7378 36.0031 37.4315 36.7385C38.1669 37.5202 39.0204 38.2657 39.9965 38.9648C40.9781 38.2657 41.8316 37.5202 42.567 36.7385C43.2607 36.0031 43.8418 35.2376 44.3148 34.4505C44.1659 34.3116 44.0169 34.1681 43.8726 34.0238C42.1503 32.3014 40.8137 30.194 39.9965 27.8442C39.184 30.194 37.8474 32.3014 36.125 34.0238C35.9807 34.1681 35.8318 34.3116 35.6829 34.4505H35.6836ZM25.54 36.9747C29.1746 36.7432 32.4442 35.1751 34.861 32.759C37.2826 30.3429 38.8506 27.0733 39.0767 23.438C35.4421 23.6641 32.1725 25.2321 29.7557 27.6536C27.3396 30.0697 25.7715 33.3393 25.54 36.9747ZM45.1328 32.759C47.5543 35.1751 50.8238 36.7432 54.4584 36.9747C54.2269 33.3401 52.6589 30.0705 50.2428 27.6536C47.8213 25.2321 44.5517 23.6641 40.9218 23.438C41.1479 27.0726 42.7159 30.3421 45.132 32.759H45.1328ZM8.30782 44.6868C8.55938 43.3294 9.65979 42.229 11.1044 42.0392L11.2587 42.0183L11.2795 42.178C11.5056 43.9159 10.3234 45.5148 8.61649 45.818V45.8234L8.45675 45.8443L8.30242 45.8651V45.8597C6.57001 45.9986 5.01741 44.7593 4.79131 43.0215L4.77048 42.8617L4.93021 42.8409C6.36938 42.6557 7.71672 43.4374 8.30782 44.6868ZM9.50545 49.9557C7.77845 50.4187 5.96811 49.3847 5.50048 47.6423L5.45958 47.4879L5.61391 47.447C7.01218 47.072 8.45675 47.6785 9.20759 48.8353C9.27935 47.4578 10.2254 46.2131 11.6237 45.8381L11.778 45.7972L11.8189 45.9515C12.2866 47.6893 11.2332 49.4935 9.50545 49.9565V49.9557ZM8.19438 36.1783C8.79552 34.9344 10.1429 34.1627 11.5874 34.3587L11.7418 34.3795L11.7209 34.5393C11.4794 36.2771 9.92139 37.5056 8.19438 37.3512L8.18898 37.3566L8.03465 37.3358L7.87491 37.3103H7.88031C6.17337 36.9916 5.0012 35.3827 5.23811 33.6495L5.25894 33.4898L5.41868 33.5106C6.85785 33.7113 7.95285 34.8217 8.19515 36.1791L8.19438 36.1783ZM7.96288 40.5375C8.38962 39.2264 9.62892 38.2803 11.0835 38.2857H11.2433V38.4455C11.2332 40.1987 9.85039 41.6224 8.11722 41.6996V41.705H7.79852V41.6996C6.07151 41.6124 4.69331 40.1725 4.69871 38.4246V38.2649H4.85845C6.31305 38.2703 7.54232 39.2264 7.96365 40.5375H7.96288ZM71.7223 44.6868C71.4707 43.3294 70.3703 42.229 68.9304 42.0392L68.7706 42.0183L68.7498 42.178C68.5237 43.9159 69.7113 45.5148 71.4182 45.818V45.8234L71.5726 45.8443H71.578L71.7323 45.8651V45.8597C73.4601 45.9986 75.0119 44.7593 75.2388 43.0215L75.2596 42.8617L75.1053 42.8409C73.6607 42.6557 72.3134 43.4374 71.7223 44.6868ZM70.5246 49.9557C72.2524 50.4187 74.0666 49.3847 74.535 47.6423L74.5759 47.4879L74.4216 47.447C73.0233 47.072 71.5787 47.6785 70.8279 48.8353C70.7561 47.4578 69.8047 46.2131 68.4064 45.8381L68.2521 45.7972L68.2112 45.9515C67.7482 47.6893 68.7976 49.4935 70.5246 49.9565V49.9557ZM71.8403 36.1783C71.2392 34.9344 69.8865 34.1627 68.4473 34.3587L68.2876 34.3795L68.313 34.5393C68.5492 36.2771 70.1126 37.5056 71.8396 37.3512V37.3566L71.9939 37.3358H71.9993L72.1536 37.3103C73.8606 36.9916 75.0327 35.3827 74.7912 33.6495L74.7704 33.4898L74.616 33.5106C73.1715 33.7113 72.0819 34.8217 71.8396 36.1791L71.8403 36.1783ZM72.0718 40.5375C71.6397 39.2264 70.4058 38.2803 68.9512 38.2857H68.7915V38.4455C68.7969 40.1987 70.1843 41.6224 71.9175 41.6996V41.705H72.2308V41.6996C73.9632 41.6124 75.3414 40.1725 75.3306 38.4246V38.2649H75.1763C73.7217 38.2703 72.4878 39.2264 72.0711 40.5375H72.0718ZM12.9757 67.0243C19.8906 73.9393 29.4478 78.2167 39.9973 78.2167C50.5468 78.2167 60.104 73.9393 67.0236 67.0243C73.9385 60.1048 78.2159 50.5522 78.2159 39.9981C78.2159 29.4439 73.9385 19.8914 67.0236 12.9764C60.104 6.06148 50.5515 1.78411 39.9973 1.78411C29.4431 1.78411 19.8906 6.06148 12.9757 12.9764C6.06071 19.8914 1.78333 29.4485 1.78333 39.9981C1.78333 50.5476 6.06071 60.1048 12.9757 67.0243Z" fill="#BF8139"/>
</svg>
