<svg width="20" height="21" viewBox="0 0 20 21" fill="none" xmlns="http://www.w3.org/2000/svg">
<path fill-rule="evenodd" clip-rule="evenodd" d="M10.0002 6.89062C7.95327 6.89062 6.50024 8.34124 6.50024 9.89062H4.50024C4.50024 7.02173 7.07666 4.89062 10.0002 4.89062C12.9238 4.89062 15.5002 7.02173 15.5002 9.89062H13.5002C13.5002 8.34124 12.0472 6.89062 10.0002 6.89062Z" fill="#BF8139"/>
<path fill-rule="evenodd" clip-rule="evenodd" d="M17 3H3L3 18H17V3ZM3 1C1.89543 1 1 1.89543 1 3V18C1 19.1046 1.89543 20 3 20H17C18.1046 20 19 19.1046 19 18V3C19 1.89543 18.1046 1 17 1H3Z" fill="#BF8139"/>
</svg>
