<svg width="41" height="46" viewBox="0 0 41 46" fill="none" xmlns="http://www.w3.org/2000/svg">
<path fill-rule="evenodd" clip-rule="evenodd" d="M34.9901 40.0912C38.7002 36.4197 41 31.3506 41 25.7495V24.6347H39.8735C39.5692 24.6347 39.265 24.6414 38.9666 24.654C39.1678 23.2313 39.1999 21.777 39.057 20.3159C38.8626 18.3229 38.3445 16.3298 37.4765 14.3878L37.0556 13.4394L36.071 13.7982C35.7279 13.9203 35.3847 14.0483 35.0543 14.1887C34.9376 13.0479 34.7111 11.9071 34.3807 10.7856C33.9141 9.19653 33.2347 7.63251 32.3278 6.13294L31.7903 5.24898L30.8581 5.71645C29.8871 6.20317 28.9676 6.74855 28.1064 7.34395C27.4134 6.18392 26.5454 5.06237 25.5092 3.98603C24.2787 2.7048 22.8158 1.49957 21.1119 0.403983L20.4966 4.69725e-07L19.8813 0.403983C18.1852 1.49957 16.7213 2.7048 15.4908 3.98603C14.4546 5.06237 13.5866 6.18392 12.8936 7.34395C12.0324 6.74759 11.1129 6.20317 10.1419 5.71645L9.20972 5.24898L8.6722 6.13294C7.76532 7.63251 7.08589 9.19654 6.61933 10.7788C6.28302 11.9071 6.06238 13.0469 5.94574 14.1877C5.61526 14.0463 5.27214 13.9184 4.92902 13.7972L3.94438 13.4384L3.5167 14.3868C2.65551 16.3289 2.13743 18.3219 1.94303 20.3149C1.80015 21.776 1.8332 23.2304 2.03343 24.653C1.72919 24.6405 1.43079 24.6338 1.12655 24.6338H0V25.7486C0 31.3496 2.29878 36.4187 6.00308 40.0902C9.4673 43.5183 14.1621 45.723 19.3749 45.999L21.6241 46C26.8369 45.7249 31.5317 43.5203 34.9901 40.0912ZM17.1179 5.51349C16.1333 6.53886 15.3246 7.6152 14.6831 8.72425C14.9095 8.91663 15.1224 9.10804 15.3362 9.30715C16.5989 10.4729 17.6865 11.7619 18.5866 13.1393C19.0075 12.8382 19.4478 12.5497 19.8949 12.2611L20.4976 11.8831L21.1002 12.2611C21.5541 12.5497 21.9945 12.8382 22.4085 13.1393C23.3154 11.7619 24.4031 10.4739 25.6657 9.30715C25.8795 9.109 26.0934 8.91663 26.3199 8.72425C25.6783 7.6152 24.8696 6.53886 23.885 5.51349C22.9266 4.52083 21.8001 3.57242 20.4985 2.67499C19.2029 3.57146 18.0763 4.51987 17.1179 5.51349ZM25.3809 15.6007C26.3976 16.6001 27.2646 17.6447 27.9839 18.7211C28.0715 18.6344 28.1625 18.5503 28.2524 18.4671C28.2814 18.4403 28.3107 18.4132 28.3393 18.3865C28.3459 18.3804 28.3525 18.3742 28.3591 18.3681C29.6937 17.1638 31.2081 16.1 32.8857 15.2025C32.8148 13.9338 32.6009 12.6583 32.2316 11.4021C31.9147 10.32 31.4802 9.24944 30.9301 8.20483C29.545 8.98684 28.3018 9.90352 27.2005 10.9221C26.0283 12.012 25.0183 13.223 24.1892 14.5177C24.6043 14.8697 25.0057 15.2352 25.3809 15.6007ZM15.622 15.5998C15.9982 15.2343 16.3996 14.8687 16.8137 14.5167C15.9846 13.222 14.9747 12.012 13.8024 10.9221C12.7021 9.90255 11.4589 8.98684 10.0729 8.20483C9.5227 9.24847 9.08822 10.3191 8.77134 11.4021C8.40198 12.6583 8.18231 13.9338 8.11719 15.2025C9.79486 16.1 11.3102 17.1628 12.6438 18.3681C12.7663 18.4825 12.8897 18.598 13.019 18.7201C13.7315 17.6438 14.6053 16.5992 15.622 15.5998ZM17.1957 17.183C16.1459 18.2151 15.2789 19.2847 14.5985 20.3938H14.6004C15.6035 21.5788 16.4647 22.861 17.1646 24.2067C17.9869 23.4882 18.8928 22.8033 19.8774 22.1492L20.4995 21.7327L21.1274 22.1492C22.1111 22.8033 23.018 23.4891 23.8403 24.2067C24.5392 22.861 25.3945 21.5798 26.4044 20.3938C25.724 19.2847 24.856 18.2151 23.8072 17.183C22.8625 16.2606 21.7544 15.3699 20.4985 14.5302C19.2417 15.3699 18.1414 16.2606 17.1957 17.183ZM25.5228 25.8342C26.3587 26.7306 27.0712 27.6598 27.6797 28.615C30.2691 26.7124 33.3319 25.4052 36.66 24.8858C36.9069 23.4574 36.9652 21.9895 36.8223 20.5284C36.6863 19.1058 36.3567 17.6832 35.8319 16.2731C33.5525 17.2215 31.5521 18.497 29.8745 20.0158C28.0034 21.701 26.5327 23.6873 25.5228 25.8342ZM13.3232 28.615C13.9259 27.6608 14.6442 26.7316 15.4733 25.8342H15.4713C14.4614 23.6873 12.9976 21.701 11.1265 20.0158C9.4498 18.497 7.44845 17.2215 5.1691 16.2731C4.63839 17.6832 4.31471 19.1058 4.17863 20.5284C4.03672 21.9895 4.09504 23.4564 4.34096 24.8858C7.67006 25.4042 10.7328 26.7114 13.3232 28.615ZM17.2666 27.1924C16.3928 28.109 15.6609 29.0642 15.0651 30.0443C15.2526 30.2175 15.4393 30.3964 15.621 30.5762C17.7905 32.7232 19.4741 35.3501 20.4976 38.279C21.5269 35.3501 23.2104 32.7232 25.3799 30.5762C25.5617 30.3964 25.7493 30.2175 25.9369 30.0443C25.3411 29.0632 24.6091 28.109 23.7353 27.1924C22.809 26.218 21.734 25.2888 20.4976 24.4173C19.268 25.2888 18.193 26.218 17.2666 27.1924ZM14.0289 32.1528C10.9846 29.1411 6.86622 27.1866 2.28809 26.898C2.57969 31.4294 4.5548 35.5049 7.59814 38.5166C10.6424 41.5349 14.7608 43.4895 19.3389 43.7713C19.0541 39.2399 17.079 35.1644 14.0289 32.1528ZM38.7139 26.898C34.1357 27.1866 30.0174 29.1411 26.9672 32.1528C23.9239 35.1654 21.9478 39.2409 21.663 43.7713C26.2353 43.4895 30.3537 41.5349 33.4038 38.5166C36.4471 35.504 38.4223 31.4285 38.7139 26.898Z" fill="#BF8139"/>
</svg>
