<svg width="20" height="21" viewBox="0 0 20 21" fill="none" xmlns="http://www.w3.org/2000/svg">
<path fill-rule="evenodd" clip-rule="evenodd" d="M9.79434 10.6072C11.895 10.6072 13.598 8.9043 13.598 6.80362C13.598 4.70294 11.895 3 9.79434 3C7.69366 3 5.99072 4.70294 5.99072 6.80362C5.99072 8.9043 7.69366 10.6072 9.79434 10.6072ZM9.79434 12.6072C12.9996 12.6072 15.598 10.0089 15.598 6.80362C15.598 3.59837 12.9996 1 9.79434 1C6.58909 1 3.99072 3.59837 3.99072 6.80362C3.99072 10.0089 6.58909 12.6072 9.79434 12.6072Z" fill="#BF8139"/>
<path fill-rule="evenodd" clip-rule="evenodd" d="M2 15.5C2 14.3954 2.89543 13.5 4 13.5H15.5001C16.6047 13.5 17.5001 14.3954 17.5001 15.5V20H15.5001V15.5L4 15.5V20H2V15.5Z" fill="#BF8139"/>
</svg>
