<svg width="1920" height="869" viewBox="0 0 1920 869" fill="none" xmlns="http://www.w3.org/2000/svg">
<path d="M581.483 749C513.433 749 451.812 721.404 407.202 676.798C362.596 632.192 335 570.572 335 502.483C335 434.395 362.596 372.812 407.202 328.202C451.808 283.596 513.428 256 581.483 256C649.538 256 711.188 283.596 755.798 328.202C800.404 372.808 828 434.428 828 502.483C828 570.538 800.404 632.188 755.798 676.798C711.192 721.404 649.572 749 581.483 749ZM776.009 465.829C782.248 454.834 778.415 440.863 767.425 434.59C761.186 445.585 765.019 459.585 776.009 465.829ZM386.986 465.829C380.714 454.834 384.58 440.863 395.541 434.59C401.814 445.585 397.981 459.585 386.986 465.829ZM427.317 514.496C420.698 514.496 415.31 509.141 415.31 502.488C415.31 495.835 420.698 490.514 427.317 490.514C433.937 490.514 439.325 495.869 439.325 502.488C439.325 509.108 433.937 514.496 427.317 514.496ZM735.678 514.496C729.059 514.496 723.671 509.141 723.671 502.488C723.671 495.835 729.059 490.514 735.678 490.514C742.298 490.514 747.686 495.869 747.686 502.488C747.686 509.108 742.298 514.496 735.678 514.496ZM396.302 610.332C391.675 602.286 394.433 592.589 402.446 587.995C410.588 583.307 420.284 586.031 424.939 594.173C427.536 598.671 427.888 602.504 426.585 607.417L426.551 607.574L419.994 606.309L420.027 606.118C420.755 602.823 420.788 600.478 419.076 597.502C416.384 592.846 410.683 592.019 406.213 594.587C401.776 597.154 399.593 602.476 402.285 607.131C404.025 610.175 406.274 611.345 409.475 612.391L409.665 612.453L407.668 618.949L407.477 618.915C402.185 617.679 399.018 615.049 396.293 610.332H396.302ZM431.659 638.622L428.173 651.894L422.566 645.432L425.705 633.676L422.376 629.877L414.806 636.468L410.022 630.956L434.07 610.108L443.576 621.131C445.792 623.666 447.471 626.833 447.219 630.257C447.028 633.077 445.507 635.388 443.419 637.195C439.9 640.239 435.753 640.776 431.664 638.622H431.659ZM456.558 667.169L446.291 659.122L439.7 662.893L433.808 658.266L464.319 641.508L469.545 645.593L460.486 679.209L454.466 674.487L456.558 667.169ZM488.624 666.66L485.486 672.143L498.506 679.618L495.177 685.387L482.157 677.911L476.108 688.463L469.774 684.821L485.647 657.258L506.714 669.361L503.385 675.158L488.619 666.669L488.624 666.66ZM516.724 679.809L507.665 676.737L509.819 670.336L534.847 678.796L532.693 685.225L523.634 682.153L515.587 705.883L508.682 703.538L516.729 679.809H516.724ZM571.659 699.387C575.144 701.127 577.013 703.505 576.695 707.623C576.157 714.371 569.885 715.955 564.083 715.512L549.004 714.371L551.41 682.624L566.142 683.765C569.091 683.989 572.258 684.906 574.255 687.217C575.682 688.896 576.219 690.765 576.029 692.953C575.805 695.996 574.288 698.055 571.659 699.382V699.387ZM606.892 703.538L615.475 714.247L606.92 714.913L599.378 705.378L594.342 705.792L595.103 715.802L587.818 716.34L585.411 684.626L599.92 683.518C603.277 683.266 606.825 683.803 609.455 686.052C611.576 687.888 612.527 690.489 612.75 693.243C613.097 697.87 611.038 701.541 606.892 703.538ZM626.598 685.639L628.243 691.407L642.467 687.351L644.274 693.623L630.017 697.679L631.729 703.667L648.107 699.011L649.914 705.283L626.531 711.936L617.82 681.33L641.012 674.739L642.786 681.045L626.598 685.639ZM667.086 686.495L663.695 664.729L669.207 661.909L684.89 677.369L681.057 655.922L687.867 652.436L692.808 685.891L687.201 688.773L671.836 674.007L674.813 695.107L669.235 697.989L644.935 674.416L651.906 670.835L667.081 686.485L667.086 686.495ZM699.813 649.331L703.741 653.83L714.925 644.133L719.201 649.074L708.016 658.771L712.072 663.493L724.969 652.308L729.244 657.249L710.869 673.184L690.055 649.136L708.273 633.358L712.548 638.298L699.813 649.322V649.331ZM742.331 625.949L755.955 627.532L750.349 633.995L738.279 632.568L734.984 636.368L742.588 642.959L737.804 648.47L713.756 627.656L723.29 616.633C725.478 614.098 728.359 611.977 731.812 611.72C734.632 611.53 737.133 612.705 739.226 614.507C742.74 617.55 743.853 621.602 742.331 625.944V625.949ZM754.747 604.882L731.936 605.866L736.182 598.453L750.629 598.262L743.629 585.527L747.781 578.337L758.266 598.486L769.261 604.792L765.618 611.126L754.752 604.887L754.747 604.882ZM427.289 625.635L431.754 630.766C433.59 632.887 436.096 633.743 438.373 631.779C440.78 629.72 440.052 627.152 438.183 625.031L433.813 619.961L427.289 625.635ZM452.378 655.637L458.494 660.454L461.314 650.601L452.378 655.637ZM557.564 695.839L563.708 696.315C565.924 696.472 568.525 696.186 568.715 693.461C568.905 691.055 566.656 690.261 564.63 690.104L558.039 689.595L557.564 695.834V695.839ZM556.579 708.479L564.597 709.083C566.846 709.24 569.319 708.831 569.509 706.135C569.733 703.443 567.036 702.711 564.854 702.554L557.093 701.95L556.584 708.474L556.579 708.479ZM593.838 699.292L600.648 698.783C603.406 698.559 605.622 697.042 605.398 694.061C605.146 690.893 602.674 689.976 599.854 690.166L593.201 690.675L593.833 699.292H593.838ZM730.067 632.126L734.532 626.961C736.339 624.869 736.843 622.239 734.594 620.275C732.188 618.183 729.777 619.262 727.908 621.417L723.537 626.453L730.062 632.126H730.067ZM418.258 390.208C421.425 387.958 424.402 387.45 427.888 389.699C433.59 393.342 431.973 399.647 428.872 404.526L420.698 417.261L393.925 400.089L401.876 387.64C403.492 385.167 405.804 382.794 408.78 382.157C410.935 381.681 412.837 382.123 414.672 383.298C417.24 384.943 418.315 387.259 418.253 390.203L418.258 390.208ZM426.528 365.589L430.869 369.707L441.103 358.998L445.825 363.496L435.592 374.234L440.09 378.509L451.874 366.155L456.596 370.687L439.838 388.272L416.808 366.316L433.442 348.893L438.164 353.391L426.537 365.589H426.528ZM452.664 340.941L456.368 345.63L467.995 336.476L472.051 341.641L460.391 350.795L464.224 355.674L477.658 345.121L481.681 350.253L462.579 365.304L442.905 340.276L461.851 325.386L465.907 330.518L452.664 340.941ZM501.326 327.032L513.367 333.59L505.763 337.484L495.115 331.654L490.617 333.937L495.21 342.901L488.686 346.229L474.206 317.906L487.164 311.287C490.141 309.736 493.627 308.88 496.922 309.927C499.585 310.783 501.483 312.808 502.719 315.281C504.873 319.433 504.365 323.579 501.326 327.037V327.032ZM547.644 324.844C538.49 326.461 530.315 320.631 528.698 311.505C527.053 302.256 532.878 294.081 542.132 292.403C547.235 291.514 550.939 292.465 555.153 295.351L555.281 295.446L551.857 301.181L551.7 301.086C548.847 299.312 546.664 298.49 543.273 299.089C537.981 300.04 535.289 305.109 536.178 310.179C537.096 315.248 541.376 319.081 546.664 318.13C550.088 317.526 551.985 315.819 554.045 313.122L554.14 312.994L559.623 317.079L559.528 317.236C556.551 321.768 553.003 323.889 547.648 324.84L547.644 324.844ZM582.335 321.649C572.924 321.425 565.672 314.297 565.924 304.795C566.176 295.294 573.941 288.541 583.286 288.765C592.697 289.017 599.949 296.145 599.697 305.651C599.473 315.124 591.679 321.905 582.335 321.649ZM627.074 307.677L637.94 296.716L645.51 298.456L638.349 329.471L631.282 327.826L635.781 308.276L624.568 318.986L624.187 318.924L618.832 304.51L614.334 323.931L607.362 322.314L614.524 291.3L622.066 293.04L627.074 307.677ZM657.646 327.507L653.78 336.091L647.127 333.081L660.209 304.092L672.088 309.48C678.394 312.333 681.623 318.096 678.646 324.654C675.574 331.497 668.603 332.448 662.269 329.595L657.641 327.503L657.646 327.507ZM694.425 351.584L683.811 344.042L677.381 348.127L671.299 343.785L700.954 325.567L706.37 329.433L698.923 363.43L692.684 358.993L694.425 351.579V351.584ZM727.694 374.396L741.413 361.309L746.387 366.507L723.357 388.462L719.11 383.997L722.976 359.697L708.815 373.193L703.84 367.995L726.842 346.039L731.436 350.857L727.698 374.396H727.694ZM744.133 396.889L753.763 376.203L758.357 383.393L751.894 396.318L766.403 395.938L770.902 402.938L748.185 402.971L737.509 409.814L733.581 403.67L744.133 396.889ZM408.433 400.945L411.791 395.748C412.96 393.879 413.945 391.439 411.662 389.979C409.603 388.681 407.863 390.265 406.75 391.977L403.169 397.583L408.429 400.941L408.433 400.945ZM419.114 407.789L423.422 401.041C424.659 399.11 425.482 396.765 423.199 395.306C420.916 393.817 419.019 395.843 417.811 397.712L413.598 404.27L419.109 407.784L419.114 407.789ZM487.64 328.173L493.722 325.068C496.195 323.803 497.65 321.549 496.29 318.891C494.835 316.071 492.172 316.132 489.67 317.435L483.716 320.479L487.644 328.178L487.64 328.173ZM582.62 314.901C588.103 315.029 591.936 310.783 592.093 305.461C592.221 300.14 588.417 295.67 583 295.546C577.551 295.389 573.684 299.631 573.528 304.986C573.399 310.307 577.203 314.744 582.62 314.901ZM660.371 321.554L665.155 323.741C667.818 324.916 670.638 324.469 671.903 321.682C673.235 318.705 671.556 316.484 668.831 315.281L664.142 313.16L660.371 321.554ZM689.707 340.276L696.042 344.774L698.353 334.793L689.703 340.276H689.707ZM576 389.257V353.933C542.037 355.17 511.022 367.748 486.594 388.025C461.756 408.616 443.761 437.163 436.443 469.766C442.682 471.478 448.198 474.964 452.44 479.619C457.952 485.64 461.309 493.686 461.309 502.493C461.309 511.3 457.952 519.346 452.44 525.4C448.193 530.055 442.682 533.541 436.443 535.253C443.761 567.851 461.756 596.398 486.594 616.994C512.32 638.346 545.394 651.181 581.479 651.181C617.563 651.181 650.67 638.351 676.397 616.994C701.235 596.403 719.229 567.856 726.548 535.253C720.309 533.541 714.792 530.055 710.55 525.4C705.039 519.351 701.648 511.333 701.648 502.493C701.648 493.653 705.039 485.64 710.55 479.619C714.797 474.964 720.309 471.478 726.548 469.766C719.229 437.168 701.235 408.621 676.397 388.025C651.968 367.748 620.953 355.17 586.99 353.933V389.418C612.493 390.778 635.462 401.678 652.382 418.631C670.533 436.782 681.785 461.843 681.785 489.534V495.046H676.273C674.785 495.046 673.296 495.013 671.836 494.951C672.821 501.984 672.978 509.174 672.279 516.398C671.328 526.251 668.793 536.104 664.546 545.705L662.487 550.394L657.67 548.621C655.991 548.017 654.313 547.384 652.696 546.69C652.125 552.33 651.017 557.97 649.4 563.515C647.118 571.371 643.794 579.103 639.357 586.517L636.727 590.887L632.167 588.576C627.416 586.169 622.917 583.473 618.704 580.529C615.313 586.265 611.067 591.809 605.998 597.131C599.977 603.465 592.82 609.423 584.484 614.84L581.474 616.837L578.464 614.84C570.165 609.423 563.004 603.465 556.983 597.131C551.914 591.809 547.667 586.265 544.277 580.529C540.064 583.478 535.565 586.169 530.814 588.576L526.254 590.887L523.624 586.517C519.187 579.103 515.863 571.37 513.581 563.548C511.935 557.97 510.856 552.335 510.285 546.695C508.668 547.394 506.99 548.026 505.311 548.625L500.494 550.399L498.401 545.71C494.188 536.109 491.653 526.256 490.702 516.403C490.003 509.179 490.165 501.989 491.144 494.956C489.656 495.017 488.196 495.051 486.708 495.051H481.196V489.539C481.196 461.848 492.443 436.787 510.566 418.636C527.514 401.687 550.483 390.788 575.986 389.423V389.266L576 389.257ZM581.483 662.194C542.769 662.194 507.251 648.38 479.594 625.411C451.494 602.095 431.502 569.273 424.53 531.886L423.451 525.961L429.438 525.424C435.301 524.886 440.556 522.128 444.327 518.01C448.032 513.925 450.314 508.475 450.314 502.488C450.314 496.501 448.032 491.085 444.327 486.995C440.556 482.877 435.297 480.119 429.438 479.581L423.451 479.011L424.53 473.119C431.502 435.736 451.494 402.909 479.594 379.594C507.251 356.625 542.765 342.81 581.483 342.81C620.202 342.81 655.744 356.625 683.402 379.594C711.501 402.909 731.493 435.731 738.465 473.119L739.544 479.011L733.557 479.581C727.694 480.119 722.439 482.877 718.668 486.995C714.963 491.08 712.681 496.53 712.681 502.488C712.681 508.447 714.963 513.925 718.668 518.01C722.439 522.128 727.698 524.886 733.557 525.424L739.544 525.961L738.465 531.886C731.493 569.269 711.501 602.095 683.402 625.411C655.744 648.38 620.197 662.194 581.483 662.194ZM553.032 573.705C556.17 579.188 560.127 584.51 564.944 589.579C569.633 594.491 575.144 599.18 581.483 603.612C587.851 599.175 593.362 594.487 598.051 589.579C602.868 584.51 606.825 579.188 609.964 573.705C608.856 572.754 607.809 571.803 606.763 570.824C600.586 565.055 595.265 558.688 590.828 551.878C588.802 553.366 586.648 554.793 584.427 556.22L581.479 558.089L578.53 556.22C576.343 554.793 574.189 553.366 572.129 551.878C567.726 558.688 562.405 565.06 556.227 570.824C555.181 571.808 554.135 572.754 553.027 573.705H553.032ZM618.105 524.282C614.586 529.604 610.344 534.768 605.37 539.709C603.534 541.516 601.57 543.323 599.54 545.063C603.596 551.464 608.537 557.451 614.272 562.839C619.66 567.875 625.742 572.407 632.519 576.273C635.21 571.109 637.336 565.816 638.886 560.466C640.693 554.256 641.739 547.95 642.087 541.678C633.879 537.241 626.47 531.981 619.94 526.028C619.337 525.457 618.704 524.886 618.105 524.287V524.282ZM563.456 545.068C561.43 543.328 559.466 541.521 557.625 539.714C552.651 534.773 548.376 529.608 544.89 524.287C544.258 524.891 543.654 525.462 543.055 526.028C536.53 531.986 529.117 537.241 520.909 541.678C521.227 547.95 522.302 554.256 524.109 560.466C525.659 565.821 527.785 571.114 530.477 576.273C537.258 572.407 543.34 567.88 548.723 562.839C554.458 557.451 559.399 551.464 563.456 545.063V545.068ZM552.618 516.013C555.947 521.496 560.189 526.784 565.324 531.886C569.951 536.447 575.335 540.85 581.483 545.002C587.627 540.85 593.049 536.447 597.671 531.886C602.802 526.784 607.049 521.496 610.377 516.013C605.436 510.149 601.252 503.815 597.833 497.162C593.809 500.71 589.373 504.1 584.56 507.334L581.488 509.393L578.445 507.334C573.627 504.1 569.195 500.714 565.172 497.162C561.748 503.815 557.535 510.154 552.627 516.013H552.618ZM616.616 475.368C613.64 480.09 610.154 484.684 606.064 489.116C611.005 499.73 618.2 509.55 627.354 517.881C635.562 525.39 645.349 531.696 656.5 536.385C659.068 529.413 660.68 522.38 661.346 515.347C662.045 508.123 661.76 500.867 660.552 493.805C644.269 491.237 629.28 484.774 616.612 475.368H616.616ZM556.898 489.116C552.841 484.679 549.327 480.085 546.379 475.368C533.706 484.779 518.721 491.242 502.434 493.805C501.231 500.871 500.945 508.123 501.64 515.347C502.305 522.38 503.889 529.413 506.485 536.385C517.637 531.696 527.428 525.39 535.631 517.881C544.786 509.55 551.947 499.73 556.888 489.116H556.898ZM554.9 468.301C557.816 473.147 561.396 477.869 565.672 482.401C570.203 487.218 575.463 491.812 581.479 496.121C587.527 491.812 592.787 487.218 597.319 482.401C601.594 477.869 605.175 473.152 608.09 468.301C607.172 467.445 606.254 466.561 605.365 465.672C594.751 455.057 586.515 442.07 581.479 427.59C576.471 442.07 568.235 455.057 557.621 465.672C556.731 466.561 555.814 467.445 554.896 468.301H554.9ZM492.39 483.856C514.788 482.43 534.937 472.767 549.831 457.877C564.754 442.988 574.417 422.839 575.81 400.437C553.412 401.83 533.263 411.493 518.369 426.416C503.48 441.305 493.817 461.454 492.39 483.856ZM613.131 457.877C628.053 472.767 648.202 482.43 670.6 483.856C669.173 461.458 659.51 441.31 644.621 426.416C629.699 411.493 609.55 401.83 587.18 400.437C588.574 422.835 598.237 442.983 613.126 457.877H613.131ZM386.197 531.382C387.747 523.017 394.528 516.236 403.431 515.066L404.382 514.938L404.51 515.922C405.903 526.631 398.618 536.485 388.099 538.354V538.387L387.115 538.515L386.164 538.644V538.61C375.488 539.466 365.92 531.829 364.526 521.12L364.398 520.136L365.382 520.007C374.251 518.866 382.554 523.683 386.197 531.382ZM393.577 563.852C382.935 566.705 371.778 560.333 368.897 549.595L368.645 548.644L369.596 548.392C378.213 546.081 387.115 549.819 391.742 556.947C392.184 548.459 398.014 540.788 406.631 538.477L407.582 538.225L407.834 539.176C410.716 549.885 404.225 561.004 393.577 563.857V563.852ZM385.498 478.949C389.202 471.283 397.505 466.528 406.408 467.735L407.359 467.864L407.23 468.848C405.742 479.557 396.141 487.128 385.498 486.177L385.465 486.21L384.514 486.082L383.529 485.925H383.562C373.043 483.961 365.82 474.046 367.28 463.365L367.408 462.381L368.393 462.509C377.261 463.746 384.009 470.589 385.503 478.954L385.498 478.949ZM384.071 505.812C386.701 497.733 394.338 491.903 403.302 491.936H404.287V492.92C404.225 503.725 395.703 512.498 385.022 512.974V513.007H383.058V512.974C372.416 512.436 363.923 503.563 363.956 492.792V491.807H364.94C373.904 491.841 381.48 497.733 384.076 505.812H384.071ZM776.988 531.382C775.438 523.017 768.657 516.236 759.783 515.066L758.799 514.938L758.671 515.922C757.277 526.631 764.596 536.485 775.115 538.354V538.387L776.066 538.515H776.099L777.05 538.644V538.61C787.698 539.466 797.261 531.829 798.659 521.12L798.787 520.136L797.836 520.007C788.934 518.866 780.631 523.683 776.988 531.382ZM769.608 563.852C780.255 566.705 791.435 560.333 794.322 549.595L794.574 548.644L793.623 548.392C785.006 546.081 776.104 549.819 771.477 556.947C771.035 548.459 765.171 540.788 756.554 538.477L755.603 538.225L755.351 539.176C752.498 549.885 758.965 561.004 769.608 563.857V563.852ZM777.716 478.949C774.012 471.283 765.675 466.528 756.806 467.735L755.822 467.864L755.979 468.848C757.434 479.557 767.069 487.128 777.711 486.177V486.21L778.662 486.082H778.696L779.647 485.925C790.166 483.961 797.389 474.046 795.901 463.365L795.772 462.381L794.821 462.509C785.919 463.746 779.205 470.589 777.711 478.954L777.716 478.949ZM779.143 505.812C776.48 497.733 768.876 491.903 759.912 491.936H758.927V492.92C758.961 503.725 767.511 512.498 778.192 512.974V513.007H780.122V512.974C790.798 512.436 799.291 503.563 799.225 492.792V491.807H798.274C789.31 491.841 781.706 497.733 779.138 505.812H779.143ZM414.963 669.037C457.576 711.651 516.472 738.01 581.483 738.01C646.495 738.01 705.391 711.651 748.033 669.037C790.646 626.396 817.005 567.528 817.005 502.488C817.005 437.448 790.646 378.581 748.033 335.967C705.391 293.354 646.523 266.995 581.483 266.995C516.443 266.995 457.576 293.354 414.963 335.967C372.349 378.581 345.99 437.477 345.99 502.488C345.99 567.5 372.349 626.396 414.963 669.037Z" fill="#E0CCB8"/>
</svg>
