<svg width="183" height="182" viewBox="0 0 183 182" fill="none" xmlns="http://www.w3.org/2000/svg">
<path d="M176.35 115.59L179.512 114.495C179.894 114.354 180.183 114.035 180.313 113.628L180.442 113.221C181.112 110.408 181.723 107.541 182.154 104.654L182.215 104.225C182.266 103.831 182.135 103.416 181.814 103.129L179.336 100.893C177.534 99.2444 176.548 96.9189 176.647 94.4869C176.745 92.0549 177.909 89.8091 179.888 88.3048L182.515 86.2955C182.851 86.0653 183.026 85.6351 182.997 85.2529L182.979 84.8369C182.776 81.9368 182.426 79.0278 181.952 76.1544L181.9 75.7276C181.837 75.3347 181.572 74.99 181.184 74.7933L178.165 73.4329C175.933 72.4317 174.252 70.522 173.616 68.1574C172.935 65.8161 173.36 63.3003 174.754 61.2761L176.635 58.5467C176.856 58.2058 176.883 57.7665 176.775 57.3969L176.6 57.0057C175.506 54.3106 174.289 51.6511 172.937 49.0611L172.727 48.6593C172.54 48.302 172.174 48.0376 171.767 48.0213L168.469 47.6553C166.044 47.3773 163.864 46.094 162.486 44.0559C161.143 42.0284 160.742 39.514 161.453 37.1627L162.398 33.9525C162.528 33.5454 162.431 33.1418 162.155 32.831L161.879 32.5201C160.024 30.3317 158.011 28.1682 155.931 26.0958L155.61 25.8081C155.323 25.5312 154.914 25.4024 154.519 25.4647L151.26 26.1559C148.848 26.6653 146.373 26.073 144.449 24.572C142.525 23.0711 141.381 20.7705 141.322 18.3634L141.248 15.0563C141.23 14.6403 141.01 14.2723 140.667 14.0525L140.29 13.8219C137.72 12.2296 135.301 10.8712 132.611 9.53949L132.224 9.34287C131.87 9.15698 131.418 9.16389 131.048 9.38333L128.166 11.0139C126.058 12.2164 123.505 12.4579 121.195 11.5817C118.875 10.7395 117.127 8.92078 116.288 6.60433L115.188 3.4592C115.046 3.07878 114.725 2.79112 114.316 2.66234L113.907 2.53356C111.08 1.86782 108.197 1.25921 105.295 0.830927L104.864 0.76999C104.467 0.719786 104.051 0.849924 103.762 1.16941L101.515 3.63425C99.8569 5.42621 97.5192 6.40711 95.0743 6.30942C92.6295 6.21173 90.3719 5.05344 88.8597 3.08485L87.5322 1.361C87.5322 1.361 87.4515 1.26096 87.4282 1.2163L86.8739 0.482108C86.6425 0.148068 86.21 -0.0253657 85.8258 0.00300604L85.4076 0.0206457C82.4923 0.222702 79.5679 0.571178 76.6794 1.04288L76.2503 1.09445C75.8554 1.15674 75.5088 1.42084 75.3111 1.80644L73.9435 4.80923C72.9371 7.03008 71.0173 8.70226 68.6403 9.33494C66.2866 10.0123 63.7576 9.58954 61.7227 8.20281L58.979 6.33179C58.6362 6.11198 58.1947 6.08496 57.823 6.19191L57.4298 6.36671C54.7205 7.45456 52.047 8.66564 49.4434 10.0107L49.0394 10.2194C48.6803 10.4049 48.4144 10.7691 48.364 11.1637L47.9961 14.4438C47.7507 16.8668 46.4158 19.0589 44.3777 20.3953C42.3396 21.7317 39.8119 22.1304 37.4482 21.4238L34.2211 20.4829C33.8119 20.3541 33.4062 20.4503 33.0937 20.7252L32.7471 20.9893C30.5131 22.8238 28.3382 24.8262 26.2889 26.9054L25.9997 27.2249C25.7213 27.5105 25.5919 27.9175 25.6437 28.3443L25.7063 28.7372L26.3044 31.5749C26.8165 33.9751 26.2211 36.4373 24.7122 38.3507C23.2034 40.2642 20.8907 41.4022 18.4709 41.4617L15.1464 41.535C14.7281 41.5526 14.3583 41.7721 14.1373 42.113L13.9055 42.4879C13.2983 43.4536 12.7018 44.3854 12.152 45.4065C11.3039 46.8935 10.4235 48.4823 9.60052 50.1265L9.40286 50.5121C9.21599 50.8638 9.22294 51.3138 9.44354 51.6817L11.0827 54.5486C12.2915 56.6456 12.5343 59.1849 11.6535 61.4826C10.8068 63.7911 8.97855 65.5294 6.6499 66.3638L3.4882 67.4586C3.10578 67.5995 2.81661 67.919 2.68715 68.326L2.55769 68.7331C1.88845 71.5452 1.27662 74.4126 0.846091 77.2998L0.784833 77.7284C0.734365 78.123 0.865188 78.5373 1.18636 78.825L3.66418 81.0601C5.46557 82.7092 6.45165 85.0347 6.35344 87.4667C6.25523 89.8988 5.09085 92.1445 3.11189 93.6488L0.484651 95.6581C0.148852 95.8883 -0.0254993 96.3186 0.00302181 96.7007L0.0207585 97.1168C0.223879 100.017 0.574189 102.926 1.04838 105.799L1.10021 106.226C1.16283 106.619 1.42833 106.964 1.81596 107.16L4.83456 108.521C7.06711 109.522 8.74809 111.432 9.38411 113.796C10.065 116.138 9.64005 118.653 8.21191 120.667L6.33104 123.396C6.11007 123.737 6.08292 124.176 6.19043 124.546L6.36614 124.937C7.45972 127.632 8.67719 130.292 10.0293 132.882L10.2391 133.284C10.4256 133.641 10.7917 133.905 11.1992 133.922L14.4965 134.288C16.9323 134.532 19.1019 135.849 20.4794 137.887C21.8229 139.914 22.2236 142.429 21.5134 144.78L20.5675 147.99C20.438 148.397 20.5347 148.801 20.811 149.112L21.0765 149.457C22.9315 151.645 24.9444 153.809 27.0238 155.881L27.3342 156.203C27.6212 156.48 28.0305 156.608 28.4254 156.546L31.6838 155.855C34.0967 155.345 36.5718 155.938 38.4953 157.439C40.4188 158.94 41.5629 161.24 41.6227 163.647L41.6963 166.954C41.7141 167.37 41.9347 167.738 42.2774 167.958L42.6542 168.189C43.6251 168.793 44.5726 169.352 45.5542 169.922C47.0723 170.811 48.6462 171.642 50.299 172.46L50.6867 172.657C51.0402 172.843 51.4926 172.836 51.8625 172.617L54.7444 170.986C56.8524 169.784 59.4052 169.542 61.715 170.418C64.0015 171.25 65.783 173.079 66.6219 175.396L67.7224 178.541C67.864 178.921 68.1511 179.198 68.4921 179.305C68.4921 179.305 68.5262 179.316 68.5603 179.327L68.9695 179.456C71.7964 180.121 74.6898 180.696 77.5814 181.158L78.0122 181.219C78.4088 181.269 78.8254 181.139 79.1145 180.82L81.3615 178.355C83.0193 176.563 85.357 175.582 87.8018 175.68C90.2466 175.778 92.5042 176.936 94.0165 178.904L96.0363 181.518C96.2677 181.852 96.7002 182.025 97.0844 181.997L97.5027 181.979C100.418 181.777 103.342 181.429 106.231 180.957L106.66 180.906C107.055 180.843 107.401 180.579 107.599 180.194L108.967 177.191C109.973 174.97 111.893 173.298 114.27 172.665C116.658 171.998 119.153 172.41 121.188 173.797L123.931 175.668C124.274 175.888 124.705 175.949 125.087 175.808L125.48 175.633C128.19 174.545 130.863 173.334 133.467 171.989L133.871 171.781C134.23 171.595 134.496 171.231 134.512 170.826L134.88 167.546C135.125 165.122 136.46 162.93 138.498 161.594C140.537 160.258 143.064 159.859 145.428 160.565L148.655 161.506C149.03 161.624 149.47 161.539 149.782 161.264L150.129 161C152.363 159.165 154.538 157.163 156.587 155.084L156.876 154.764C157.155 154.479 157.284 154.072 157.232 153.645L156.538 150.404C156.025 148.003 156.621 145.541 158.13 143.628C159.639 141.714 161.951 140.576 164.371 140.517L167.696 140.444C168.114 140.426 168.484 140.206 168.705 139.866L168.937 139.491C169.544 138.525 170.14 137.593 170.679 136.606C171.572 135.096 172.397 133.564 173.231 131.886L173.428 131.5C173.615 131.149 173.608 130.699 173.388 130.331L173.19 130.007L171.772 127.509C170.563 125.412 170.354 122.883 171.201 120.574C172.048 118.266 173.876 116.528 176.205 115.693L176.35 115.59ZM14.7924 131.47C16.0924 130.685 17.3817 129.934 18.705 129.193C20.7807 128.093 22.9121 126.935 25.0806 126.722C26.1524 126.537 27.1862 126.825 28.1661 127.282C28.6452 127.545 29.1244 127.808 29.5263 128.196C29.9838 128.526 30.3749 128.948 30.766 129.369C32.3538 131.1 33.6739 133.083 35.3083 134.904C34.4586 132.621 33.2714 130.456 31.7035 128.545C31.2891 128.079 30.8855 127.578 30.4154 127.169C29.9668 126.692 29.407 126.329 28.8812 125.977C27.7291 125.354 26.331 124.914 24.9756 125.047C24.2971 125.057 23.6436 125.225 23.0117 125.324C22.4264 125.513 21.7729 125.681 21.2109 125.914C20.0187 126.36 18.9073 126.906 17.83 127.463C15.8997 128.46 14.0951 129.534 12.2456 130.631C11.184 128.543 10.2122 126.409 9.35349 124.273L10.7475 122.248C12.6176 119.553 13.1992 116.191 12.2907 113.032C11.3823 109.872 9.15953 107.307 6.14092 105.946L5.83402 105.85C7.36545 105.399 8.84121 105.005 10.3403 104.656C12.6059 104.137 14.9648 103.798 17.1205 104.215C19.287 104.598 21.119 106.033 22.247 108.03C23.4092 110.037 24.0435 112.29 24.8482 114.595C24.7544 112.177 24.3661 109.742 23.2795 107.496C22.9656 106.95 22.6518 106.403 22.293 105.88C21.8445 105.403 21.4966 104.846 20.9816 104.46C20.4666 104.074 19.9732 103.62 19.3361 103.382C19.0399 103.251 18.7546 103.087 18.4585 102.957L17.5378 102.667C14.9712 102.008 12.4094 102.396 10.0289 102.804C7.91949 103.185 5.89254 103.779 3.85307 104.294C3.48986 102.015 3.21644 99.6898 3.0561 97.363L4.99017 95.8819C7.61741 93.8726 9.17711 90.8556 9.31884 87.579C9.46057 84.3023 8.13386 81.1607 5.69014 78.9363L5.34565 78.6039C6.83914 78.6261 8.34342 78.6144 9.82612 78.6705C12.0556 78.7378 14.2652 78.9853 16.1226 79.8684C17.0792 80.2814 17.7914 80.9907 18.4139 81.7463C18.692 82.1697 18.9251 82.6162 19.1474 83.0967C19.2908 83.5896 19.4682 84.0932 19.6008 84.6201C20.052 86.7399 19.9396 88.9809 19.9868 91.3094C20.7113 89.1491 21.2637 86.8227 20.9885 84.3851C20.9116 83.8012 20.7324 83.185 20.5873 82.5796C20.3525 82.0205 20.0943 81.4169 19.7804 80.8703C19.063 79.8235 18.1318 78.8588 16.9689 78.2689C14.7437 77.0088 12.2289 76.7772 9.91875 76.6099C7.89217 76.4946 5.92475 76.5472 4.00221 76.5765C4.38574 74.3089 4.83748 72.0628 5.39152 69.8488L7.72017 69.0143C10.8478 67.9088 13.2885 65.5423 14.4174 62.4644C15.5804 59.3972 15.2789 55.9811 13.6289 53.1482L12.4201 51.0512C12.5513 50.7566 12.7058 50.5067 12.8603 50.2568C14.9349 51.2828 17.015 51.9375 19.0287 52.6831C21.1106 53.4502 23.1368 54.2745 24.7409 55.6003C25.5088 56.2525 26.1547 57.0528 26.576 57.969C26.9525 58.9085 27.0704 59.9532 27.0412 60.9888C26.9722 62.3852 26.6089 63.7635 26.1558 65.1883C26.5744 64.4617 27.072 63.7227 27.6612 63.0498C27.8554 62.4392 28.0603 61.7947 28.1181 61.1412C28.2695 59.9574 28.2055 58.7431 27.7915 57.5679C27.3774 56.3927 26.66 55.3459 25.7647 54.5044C23.9741 52.8214 21.7989 51.8756 19.7153 50.996C17.6999 50.1379 15.6538 49.4939 13.818 48.543C14.1037 47.9985 14.4002 47.4201 14.7092 46.9203C15.1943 46.1027 15.6794 45.2851 16.1986 44.4783L18.6525 44.4296C21.9429 44.3456 25.0186 42.8133 27.0718 40.2501C29.1249 37.6869 29.9218 34.3553 29.2162 31.1479L28.7041 28.7477C30.5091 26.9647 32.3823 25.2032 34.3146 23.6096L36.6676 24.3501C39.8372 25.2357 43.223 24.7339 45.9776 22.9139C48.7322 21.094 50.5198 18.186 50.8428 14.9291L51.099 12.4722C53.3775 11.3234 55.7027 10.2639 58.0745 9.29375L60.1094 10.6805C62.819 12.5408 66.2096 13.0854 69.3748 12.2156C72.5507 11.3119 75.1637 9.11153 76.4972 6.09802L77.5036 3.87717C79.7943 3.51586 82.1317 3.24387 84.4474 3.03971C84.4014 5.18963 84.2764 7.35201 84.2878 9.55732C84.2961 10.8287 84.3385 12.1109 84.6304 13.4342C84.8434 14.77 85.4745 16.0881 86.2728 17.2349C86.7895 17.7334 87.2056 18.3122 87.8104 18.6518L88.6789 19.2236C88.975 19.3541 89.3052 19.4954 89.6014 19.6259C89.9083 19.7225 90.2277 19.8976 90.5346 19.9942L91.4553 20.284L92.4084 20.472L93.3831 20.5921C95.9229 20.9809 98.454 20.8072 100.939 20.5442C98.4436 20.1322 95.9737 19.8774 93.6333 19.2155C91.3054 18.6321 89.0405 17.7328 87.7471 16.0197C86.5436 14.2602 86.394 11.8994 86.3791 9.46912C86.3889 7.90488 86.4436 6.31745 86.4301 4.70855L86.5108 4.80859C88.5307 7.42207 91.5636 8.9736 94.8575 9.11459C98.1513 9.25558 101.31 7.93582 103.546 5.5049L105.214 3.67903C107.539 4.03736 109.831 4.49747 112.101 5.02542C111.33 7.09639 110.57 9.13345 109.982 11.3367C109.787 11.9473 109.661 12.5793 109.535 13.2114C109.409 13.8434 109.318 14.4862 109.249 15.1737C109.157 15.8165 109.236 16.5129 109.201 17.2111C109.241 17.5593 109.314 17.9183 109.364 18.2326C109.403 18.5808 109.488 18.9058 109.606 19.2416L109.961 20.2489C110.124 20.5615 110.287 20.8741 110.461 21.1527C110.787 21.7779 111.27 22.2656 111.697 22.8105C112.18 23.2982 112.684 23.7181 113.188 24.138L114.834 25.2156C117.082 26.5203 119.482 27.3501 121.89 28.0335C119.71 26.7502 117.553 25.5116 115.608 24.0785C113.674 22.6115 112.107 20.8125 111.611 18.7159C111.047 16.5978 111.61 14.2374 112.162 11.911C112.569 10.3969 113.009 8.89364 113.461 7.35642L113.497 7.47965C114.608 10.5909 116.987 13.0188 120.081 14.1418C123.164 15.2987 126.598 14.9987 129.446 13.3574L131.554 12.155C133.105 12.9414 134.508 13.7189 135.901 14.5304C130.609 24.2095 126.815 30.4788 130.656 33.8521C134.349 37.104 161.315 63.428 157.948 95.954C157.975 95.5147 158.003 95.0754 157.996 94.6255L157.863 91.1505C157.856 89.9916 157.726 88.8683 157.572 87.7004C157.452 86.5432 157.322 85.42 157.123 84.2753C156.636 82.0322 156.307 79.7642 155.583 77.5586C155.261 76.4495 154.972 75.3512 154.605 74.2653L153.368 71.0772C152.99 70.0253 152.498 68.975 151.996 67.9587C151.494 66.9424 151.037 65.9029 150.49 64.9098L148.759 61.9769C148.458 61.5089 148.212 60.9838 147.866 60.5389L146.883 59.1474C144.404 55.3819 141.243 52.1107 138.006 49.077C148.969 63.0877 154.196 80.7417 152.069 97.5741C151.124 105.972 148.387 114.104 144.201 121.369C140.015 128.635 134.47 135.1 127.772 140.119C114.422 150.248 96.8779 154.69 80.0738 152.089C71.6609 150.822 63.5147 147.773 56.1052 143.352C48.6615 138.919 42.1881 132.852 36.8407 125.721C40.7982 133.683 46.8009 140.76 54.0698 146.331C55.8893 147.687 57.7878 149.031 59.8067 150.114L62.7964 151.801C63.3096 152.075 63.8121 152.382 64.2912 152.645L65.8741 153.33C67.9918 154.22 70.0897 155.291 72.3045 155.876C74.5211 156.573 76.716 157.339 79.0064 157.686C88.1099 159.73 97.6544 159.562 106.832 157.599C107.396 157.478 107.97 157.323 108.545 157.168C88.235 164.173 63.7739 160.17 37.7969 137.105C33.609 140.601 26.3793 145.64 23.5026 147.608L24.1931 145.437C25.0833 142.284 24.5788 138.916 22.7493 136.176C20.9197 133.436 17.9965 131.657 14.6883 131.325L14.5519 131.282L14.7924 131.47ZM36.201 150.97C44.2649 150.149 58.1078 151.445 47.8394 166.275C46.244 165.512 45.4506 165.412 45.4506 165.412C45.4506 165.412 46.7766 159.709 43.488 156.248C40.1995 152.788 36.2243 151.014 36.2243 151.014L36.201 150.97ZM58.7961 163.79C63.1301 162.43 69.0602 160.415 72.2688 162.358C75.4774 164.301 73.8597 175.285 73.8597 175.285L71.3039 174.593C71.3039 174.593 70.6651 170.585 67.2864 167.88C63.9185 165.141 58.7961 163.79 58.7961 163.79ZM88.1872 169.868C90.6008 167.94 93.91 166.146 95.859 167.095C97.8079 168.044 99.6947 178.154 99.6947 178.154L98.5081 178.228C98.5081 178.228 96.277 174.391 93.3952 172.365C90.5475 170.349 88.1423 169.891 88.1423 169.891L88.1872 169.868ZM138.313 24.992C138.313 24.992 141.888 30.1473 145.765 31.4047C149.652 32.6281 153.76 31.2713 153.76 31.2713L155 32.4451C155 32.4451 150.424 35.7445 147.003 38.3623C145.416 39.5793 144.018 38.4304 142.439 37.2617C135.333 32.0028 137.418 27.0987 138.292 25.0599L138.313 24.992ZM156.462 44.3617C156.462 44.3617 158.618 47.727 161.724 50.3464C164.83 52.9658 168.959 52.2501 168.959 52.2501L169.672 53.7808C169.672 53.7808 163.012 55.3791 158.845 56.5679C157.73 56.8888 156.58 56.3775 156.033 55.3844C152.078 48.3557 154.792 46.075 156.462 44.3617ZM166.779 136.013C166.091 137.587 154.775 132.235 154.451 131.723C154.115 131.244 155.561 129.647 156.874 127.522C157.162 127.09 159.01 128.12 160.411 130.203C161.778 132.275 167.478 134.404 166.79 135.979L166.779 136.013ZM125.074 160.28C125.074 160.28 124.145 162.376 124.594 164.383C125.01 166.38 126.325 170.264 126.325 170.264L123.952 171.122C123.952 171.122 119.905 164.736 117.61 163.342C117.61 163.342 124.907 160.451 125.063 160.314L125.074 160.28ZM166.846 78.8269C168.059 77.4918 172.449 76.0745 174.135 76.9039C175.822 77.7333 178.037 81.2665 178.037 81.2665C172.07 81.6277 168.682 84.1438 165.305 88.1562C164.504 81.7095 165.589 80.1851 166.846 78.8269ZM140.78 145.221L146.74 156.911C146.74 156.911 143.692 156.586 142.596 155.905C141.5 155.224 137.78 149.464 137.671 148.272C137.562 147.081 138.334 146.541 140.745 145.21L140.78 145.221ZM163.844 104.9C163.844 104.9 163.863 103.898 163.941 102.355C164.019 100.812 164.897 99.111 164.897 99.111L176.887 105.646L176.989 106.387C176.989 106.387 167.354 104.362 163.844 104.9Z" fill="#BF8139"/>
<path d="M62.5643 22.4243L63.072 23.0692L63.6802 23.6338C64.0821 24.0215 64.5953 24.295 65.0529 24.6255C65.5662 24.899 66.101 25.1046 66.6466 25.2763C67.2138 25.3802 67.7935 25.5626 68.3589 25.554C70.6674 25.6088 72.8488 24.7653 74.5835 23.5573C75.537 23.0364 76.2715 22.26 77.121 21.5944C77.8789 20.8626 78.5794 20.0755 79.2458 19.2777C78.3264 19.8093 77.4986 20.4071 76.6474 20.9602L75.3133 21.7345C74.8877 22.0111 74.4388 22.243 74.0007 22.4409L72.6307 23.092L71.2465 23.552C70.3003 23.814 69.3866 23.9742 68.4693 23.9095C66.5917 23.9156 64.9138 22.9398 63.5125 21.5659C62.1113 20.192 61.0208 18.4308 59.9752 16.6463C60.414 18.6876 61.2027 20.6897 62.6092 22.4011L62.5643 22.4243Z" fill="#BF8139"/>
<path d="M42.9001 34.5959L43.6305 35.0124C44.0988 35.3091 44.6552 35.4468 45.19 35.6525C45.7357 35.8242 46.3244 35.8602 46.9024 35.9301C47.4786 35.8876 48.0674 35.9236 48.6311 35.8025C50.886 35.3179 52.8343 34.0279 54.2461 32.4197C55.0381 31.6987 55.6004 30.7562 56.2327 29.9476C56.7843 29.039 57.3017 28.1196 57.7851 27.1896C57.0272 27.9213 56.3267 28.7084 55.6478 29.4277L54.5217 30.4914C54.1428 30.8572 53.8087 31.1999 53.3831 31.4765L52.2212 32.4169L50.9661 33.1787C50.1132 33.6194 49.237 34.0153 48.3232 34.1756C46.4974 34.6085 44.6111 34.0522 42.944 33.0424C41.2428 32.0219 39.7949 30.5587 38.3579 29.0616C39.258 30.9495 40.4957 32.7198 42.247 34.0546L42.9109 34.562L42.9001 34.5959Z" fill="#BF8139"/>
<path d="M37.3098 49.107C38.5865 48.2773 39.5063 47.0367 40.0975 45.7674C40.7228 44.5089 41.1095 43.1752 41.3597 41.7985C40.4598 42.8588 39.743 44.0512 38.9903 45.1204C38.2035 46.1789 37.415 47.1249 36.3842 47.7708C35.3876 48.4274 34.183 48.7946 32.9316 49.0726C31.6462 49.3397 30.3125 49.4051 28.9247 49.6401C30.2547 50.0586 31.617 50.3754 33.053 50.3422C34.4891 50.3091 35.9882 49.9598 37.2649 49.1302L37.3098 49.107Z" fill="#BF8139"/>
<path d="M41.4703 118.595L40.224 116.262L46.8101 112.775L48.0565 115.107L49.448 114.388L47.852 111.386C47.3516 110.482 46.86 110.141 46.1758 110.522L38.7368 114.451C38.0186 114.822 38.0165 115.418 38.5168 116.322L40.147 119.335L41.5385 118.616L41.4703 118.595Z" fill="#BF8139"/>
<path d="M53.3782 119.842L50.5618 116.194L42.1773 122.624L43.5854 124.448L46.6706 122.06L47.6285 123.294L44.5434 125.682L45.9515 127.506L48.981 125.175C49.3833 124.854 49.3656 124.438 49.0876 124.015C49.511 124.335 49.8969 124.419 50.2884 124.131L53.3628 121.778C54.0111 121.273 53.9109 120.644 53.2651 119.844L53.3782 119.842ZM48.8587 122.375L47.9007 121.141L50.7291 118.971L51.687 120.205L48.8587 122.375Z" fill="#BF8139"/>
<path d="M59.3185 125.816L57.0704 123.803C56.2791 123.106 55.6545 122.947 55.121 123.562L48.77 130.557L50.4907 132.106L53.0932 129.231L54.2631 130.271L51.6605 133.146L53.3812 134.695L59.7322 127.7C60.2657 127.085 60.1098 126.513 59.3185 125.816ZM55.3317 129.152L54.1619 128.112L56.5417 125.465L57.7116 126.505L55.3317 129.152Z" fill="#BF8139"/>
<path d="M56.7331 137.131L58.698 138.384L61.0605 134.612L63.3449 136.04L64.1731 134.733L61.8888 133.305L63.5236 130.76L65.808 132.187L66.6362 130.881L62.3869 128.2L56.7331 137.131Z" fill="#BF8139"/>
<path d="M67.7138 133.272L69.5695 134.043L66.0773 142.311L68.195 143.201L71.7213 134.944L73.577 135.715L74.1881 134.265L68.3249 131.823L67.7138 133.272Z" fill="#BF8139"/>
<path d="M85.6869 141.989C86.2057 141.891 86.5307 141.694 86.5794 141.187L86.9581 137.873C87.0591 137.084 86.5441 136.698 85.4904 136.59L80.9007 136.042L79.671 146.514L84.2607 147.063C85.2695 147.194 85.9087 146.835 85.9773 146.148L86.3685 142.912C86.4172 142.405 86.1302 142.128 85.6761 142.022L85.6869 141.989ZM83.0323 137.832L84.585 138.022L84.2352 141.009L82.6825 140.819L83.0323 137.832ZM82.1848 145.215L82.5255 142.374L84.0782 142.564L83.7374 145.405L82.1848 145.215Z" fill="#BF8139"/>
<path d="M92.1903 145.603L92.0554 142.724L94.5309 142.607L94.4617 141.056L91.9754 141.206L91.8154 138.17L94.483 138.04L94.4138 136.488L89.418 136.744L89.9653 147.291L94.9612 147.034L94.8579 145.472L92.1903 145.603Z" fill="#BF8139"/>
<path d="M100.635 144.528L100.026 141.725L102.484 141.192L102.133 139.701L99.7199 140.21L99.086 137.249L101.702 136.692L101.396 135.177L96.4909 136.209L98.6862 146.527L103.546 145.519L103.251 143.971L100.635 144.528Z" fill="#BF8139"/>
<path d="M110.604 138.187C111.052 137.843 111.273 137.502 111.084 137.032L109.648 133.408C109.365 132.647 108.719 132.556 107.73 132.954L103.446 134.628L107.296 144.46L109.444 143.606L108.008 139.982L109.459 139.431L110.895 143.055L113.042 142.201L111.629 138.622C111.441 138.152 111.032 138.023 110.525 138.2L110.604 138.187ZM107.488 138.55L106.181 135.228L107.632 134.677L108.939 137.999L107.488 138.55Z" fill="#BF8139"/>
<path d="M70.928 35.1694C69.9262 35.4885 69.549 35.9669 69.7407 36.6616L72.1832 44.6698C72.3982 45.4092 73.0336 45.5345 73.9906 45.2386L76.9403 44.3383C77.9422 44.0192 78.3086 43.5748 78.0936 42.8354L75.6511 34.8272C75.4361 34.0878 74.8114 33.9286 73.8437 34.2584L70.894 35.1587L70.928 35.1694ZM75.7903 43.1181L74.293 43.5798L72.1247 36.4789L73.622 36.0172L75.7903 43.1181Z" fill="#BF8139"/>
<path d="M84.0244 43.0599L83.6368 39.2062L85.1843 39.0588L85.5718 42.9125L87.8875 42.7083L87.5233 38.8993C87.459 38.3939 87.1162 38.1741 86.5849 38.1935C87.102 37.983 87.4145 37.7082 87.3501 37.2028L86.9626 33.3492C86.8822 32.5402 86.29 32.2792 85.2847 32.3733L80.7106 32.837L81.7211 43.3426L84.0369 43.1385L84.0244 43.0599ZM83.1512 34.1275L84.6987 33.9801L85.0361 37.5195L83.4887 37.6669L83.1512 34.1275Z" fill="#BF8139"/>
<path d="M94.6134 32.436L92.2946 32.2708L91.5359 42.8109L93.8548 42.976L94.6134 32.436Z" fill="#BF8139"/>
<path d="M99.0685 43.7641L103.565 44.8432L104.991 39.0601L102.731 38.4983L101.666 42.7905L100.134 42.42L101.9 35.214L105.215 35.996L105.588 34.4713L101.58 33.5085C100.569 33.2651 99.9499 33.4434 99.7359 34.2343L97.7571 42.3438C97.5879 43.1116 98.058 43.5207 99.0685 43.7641Z" fill="#BF8139"/>
<path d="M111.147 36.4358L107.012 46.1311L109.153 47.0341L113.287 37.3389L111.147 36.4358Z" fill="#BF8139"/>
<path d="M119.282 42.2514L120.629 43.086L115.781 50.6654L117.746 51.9182L122.826 43.9639C123.268 43.282 122.954 42.7354 122.086 42.1636L118.179 39.7027L112.502 48.5888L114.467 49.8416L119.316 42.2621L119.282 42.2514Z" fill="#BF8139"/>
<path d="M124.681 52.7575L125.83 53.8652L123.101 56.6637L124.766 58.2699L131.347 51.4967C131.904 50.9256 131.725 50.3094 130.978 49.5894L128.831 47.4955C128.084 46.7755 127.46 46.6162 126.869 47.1766L120.288 53.9498L121.953 55.556L124.681 52.7575ZM128.245 49.1023L129.359 50.1993L126.864 52.7354L125.75 51.6384L128.255 49.0684L128.245 49.1023Z" fill="#BF8139"/>
<path d="M129.836 64.9777L131.134 64.0802L129.584 61.8759L136.97 56.6995L135.652 54.8292L126.968 60.9031L129.836 64.9777Z" fill="#BF8139"/>
<path d="M92.5392 55.3301C95.0198 55.551 97.5273 56.0416 99.9825 56.8142C114.475 61.3752 123.93 74.4637 124.558 88.7672C124.857 88.3013 125.189 87.8461 125.51 87.4249C127.109 85.465 128.59 84.6998 129.752 84.4682C127.564 69.5246 117.09 56.3392 101.642 51.4777C95.5723 49.5675 89.3561 49.1786 83.4535 50.0451C87.7735 51.442 90.6303 53.3113 92.5051 55.3193L92.5392 55.3301Z" fill="#BF8139"/>
<path d="M119.274 118.003C119.274 118.003 119.124 117.769 119.043 117.669C118.261 116.117 117.973 114.31 118.184 112.585C117.02 113.413 115.799 114.185 114.587 114.811C105.555 123.985 91.8154 127.908 78.6866 123.776C69.4794 120.879 62.2666 114.541 58.1061 106.627C56.2246 107.117 54.3073 107.484 52.4223 107.749C57.1329 117.59 65.7396 125.561 76.9929 129.102C92.5088 133.985 108.802 129.112 119.24 117.992L119.274 118.003Z" fill="#BF8139"/>
<path d="M99.337 58.9621C97.7001 58.4469 96.0435 58.1122 94.3993 57.856C94.8297 58.6258 95.1704 59.442 95.3854 60.1814C96.4749 60.4123 97.5536 60.6772 98.6448 61.0206C110.239 64.6693 118.129 74.541 119.851 85.7559C120.828 85.9886 121.569 86.3711 122.197 86.7553C120.827 74.196 112.193 63.0079 99.337 58.9621Z" fill="#BF8139"/>
<path d="M79.4004 121.65C89.8011 124.923 100.582 122.756 108.804 116.835C107.451 117.081 106.06 117.091 104.688 116.92C97.4556 121.026 88.6178 122.275 80.0585 119.581C72.2835 117.134 66.1956 111.86 62.4742 105.277C61.7992 105.513 61.09 105.737 60.3808 105.962C64.3154 113.171 70.9542 118.955 79.4112 121.616L79.4004 121.65Z" fill="#BF8139"/>
<path d="M77.7312 90.4501C78.8807 85.774 76.3608 81.5478 73.2187 79.5141C82.5113 76.9529 91.3872 71.5737 92.7615 66.0727C93.4325 63.3732 94.2515 55.6077 80.171 52.1095C54.3271 45.7302 29.9179 59.0207 27.2987 69.6155C25.8812 75.2522 29.1542 77.7002 32.0385 78.4213L32.2772 78.4965C37.5002 79.767 48.2148 73.3245 56.0923 68.4894C59.1072 66.6767 61.3356 65.2136 63.2676 64.3289C61.5088 66.9101 58.7911 70.3836 56.0949 73.7893C55.7755 73.6141 55.5333 73.314 55.3718 73.1139C55.1279 72.7013 54.8283 72.3458 54.306 72.2188C53.125 71.9217 52.4552 72.4946 52.1997 73.5337C51.9659 74.505 52.3402 76.0408 53.1868 77.3895C49.6481 81.9107 46.6697 86.0859 46.0833 88.4016C45.2307 91.7903 47.5842 94.77 49.537 95.2353C51.3767 95.7023 51.3128 94.488 51.3243 93.0363C51.2867 92.8006 51.2923 92.4292 51.3678 92.1917C51.8355 90.2491 55.5214 85.7369 59.5504 80.7355C61.9879 81.0921 64.7021 81.0507 67.5582 80.6807L68.4664 80.8919C72.8494 81.9727 73.4586 84.0676 73.0431 85.7281C71.3918 92.336 54.3051 101.475 38.76 97.6279C36.4662 97.0553 36.0737 95.8123 36.2428 95.0445C36.8508 92.661 36.0923 91.1535 35.0477 90.8994C34.0713 90.6667 32.8071 91.575 32.1775 94.0264C31.3788 97.2455 32.3077 102.464 40.756 104.563C53.9733 107.827 75.5905 99.0684 77.7419 90.4161L77.7312 90.4501ZM52.5733 66.2251C45.1555 70.7944 36.9763 75.8704 33.4566 75.024L33.4225 75.0132C33.0797 74.7934 32.8017 74.37 33.014 73.4666C34.5053 67.48 55.7877 50.2201 79.3378 56.0268C90.0458 58.6876 88.5734 62.9635 88.2442 64.3526C87.2423 68.3288 75.1282 73.5099 64.6678 74.4348C67.6191 70.6989 69.9652 67.3323 70.4545 65.3219C71.0517 62.9723 68.0234 59.519 66.5964 59.4058C64.0816 59.1741 58.6247 62.5319 52.6074 66.2359L52.5733 66.2251Z" fill="#BF8139"/>
<path d="M124.929 97.3922C124.086 98.5078 123.411 99.452 121.177 101.995C116.92 106.179 110.594 111.092 105.688 109.884C104.644 109.63 104.457 108.563 104.832 107.151C104.993 106.642 105.177 106.066 105.45 105.443C111.119 105.547 120.795 97.7704 121.987 92.9586C122.509 90.8465 121.77 89.1586 119.193 88.5341C112.346 86.827 103.587 91.7206 99.8907 98.506C95.7296 102.272 90.2454 106.069 85.8965 104.999C84.8519 104.744 84.6658 103.678 85.0399 102.266C85.2017 101.757 85.3851 101.181 85.6583 100.557C91.3271 100.662 101.003 92.8853 102.196 88.0735C102.717 85.9613 101.979 84.2735 99.4012 83.649C91.407 81.6556 80.8358 88.591 78.7275 97.1075C77.6734 101.366 78.7776 107.684 84.3075 109.051C88.9975 110.229 93.9801 107.654 98.2272 104.326C98.0169 108.29 99.5691 112.846 104.167 113.958C112.684 116.078 122.189 106.008 126.32 101.039C126.621 101.507 126.944 101.907 127.221 102.218C127.221 102.218 122.196 108.698 121.301 112.222C120.619 114.956 121.938 118.356 125.174 119.151C130.08 120.359 141.082 106.17 143.588 102.891C144.242 102.015 142.009 100.305 141.355 101.181C139.119 104.321 129.073 116.683 126.574 116.046C126.438 116.003 126.424 115.812 126.487 115.496C126.881 113.903 129.02 111.069 130.626 108.85C131.812 107.245 132.877 105.901 133.069 105.178C133.357 104.037 132.77 103.405 131.966 102.63C131.184 101.786 130.207 100.732 130.762 98.6309C131.102 97.2079 132.313 95.7603 133.403 94.5734C134.359 93.4561 135.215 92.5316 135.449 91.5603C136.014 89.3124 132.902 87.7733 131.165 87.3385C129.325 86.8715 126.295 90.6198 125.293 94.596C125.038 95.6351 124.974 96.6601 125.02 97.4583L124.929 97.3922ZM99.0118 86.9969C99.0118 86.9969 99.1948 87.1291 99.1301 87.3326C98.4699 89.9983 92.1446 95.7324 87.5361 96.8943C90.883 91.6783 96.2639 86.3187 98.9777 86.9861L99.0118 86.9969ZM118.872 91.9035C118.872 91.9035 119.055 92.0357 118.99 92.2392C118.33 94.9049 112.005 100.639 107.396 101.801C110.743 96.5848 116.124 91.2253 118.838 91.8927L118.872 91.9035Z" fill="#BF8139"/>
<path d="M139.615 79.9967C140.281 79.9077 139.081 77.6643 139.01 76.7089C138.938 75.7536 139.326 73.002 139.326 73.002C139.409 75.4538 139.688 76.6986 140.938 78.5474C142.154 80.3855 140.983 81.4723 141.552 81.6887C141.893 81.796 142.799 80.3644 143.067 78.6949C143.368 76.2148 142.316 73.2714 138.73 69.5679C137.561 72.2976 136.691 74.5614 137.106 77.2669C137.687 78.9796 138.949 80.0856 139.625 79.9627L139.615 79.9967Z" fill="#BF8139"/>
<path d="M135.511 83.8177C136.451 84.636 137.53 84.9008 137.91 84.6474C138.336 84.3709 136.691 83.2933 136.285 82.6806C135.88 82.0679 135.148 80.1211 135.148 80.1211C136.112 81.693 136.768 82.4594 138.274 83.2691C139.779 84.0788 139.389 85.1875 139.852 85.1467C139.887 85.1574 139.942 85.1003 139.975 84.9985C139.975 84.9985 141.073 82.1349 136.942 79.7899C136.073 79.2181 135.002 78.6943 133.615 78.2204C133.863 80.3883 134.139 82.117 135.522 83.7837L135.511 83.8177Z" fill="#BF8139"/>
<path d="M141.601 87.7868C142.075 87.712 141.404 86.7546 142.642 85.5767C143.879 84.3988 144.307 83.5258 144.834 81.7511C144.834 81.7511 144.594 83.8027 144.378 84.4812C144.162 85.1596 142.873 86.6196 143.339 86.8038C143.783 86.9433 144.736 86.4224 145.433 85.4103C146.353 83.4608 146.133 81.675 145.795 79.5535C144.352 80.5545 143.303 81.4932 142.57 82.3821C142.36 82.6891 142.149 82.9961 141.939 83.3031C141.057 84.7794 140.988 86.1758 141.325 87.4759C141.407 87.6885 141.522 87.7992 141.601 87.7868Z" fill="#BF8139"/>
<path d="M126.439 128.505C125.825 128.311 126.167 129.949 124.12 130.723C122.062 131.531 121.08 132.379 119.594 134.337C119.594 134.337 120.868 131.864 121.479 131.123C122.09 130.383 124.358 129.268 123.875 128.78C123.382 128.326 121.721 128.475 120.256 129.544C118.352 131.52 117.755 133.87 117.132 136.771C122.207 135.793 124.804 133.998 125.958 131.786C126.692 130.301 126.79 128.578 126.449 128.471L126.439 128.505Z" fill="#BF8139"/>
<path d="M127.049 124.816C127.049 124.816 127.103 124.646 127.035 124.625C126.679 124.326 126.358 125.456 124.658 125.257C122.958 125.058 121.978 125.31 120.281 126.044C120.281 126.044 122.028 124.915 122.691 124.601C123.377 124.332 125.312 124.381 125.157 123.922C124.993 123.497 123.946 123.13 122.715 123.228C120.62 123.8 119.35 125.08 117.938 126.688C119.324 127.049 120.537 127.244 121.567 127.308C126.302 127.753 127.06 124.782 127.06 124.782L127.049 124.816Z" fill="#BF8139"/>
<path d="M130.824 125.332C130.346 125.182 130.557 127.114 130.331 127.826C130.115 128.505 129.125 130.32 129.125 130.32C129.709 128.601 129.875 127.608 129.544 125.937C129.212 124.265 130.315 123.866 129.97 123.533C129.913 123.478 129.755 123.503 129.564 123.63C128.503 124.49 127.786 125.682 127.654 127.395C127.683 127.777 127.677 128.148 127.638 128.509C127.723 129.655 128.028 131.057 128.641 132.668C130.155 131.092 131.322 129.78 131.731 127.67C131.746 126.443 131.278 125.438 130.824 125.332Z" fill="#BF8139"/>
</svg>
