<svg width="245" height="245" viewBox="0 0 245 245" fill="none" xmlns="http://www.w3.org/2000/svg">
<path d="M90.0521 240.594C57.45 231.638 31.5597 210.308 16.0574 183.067C0.557325 155.827 -4.55421 122.674 4.40617 90.0534C13.3666 57.4331 34.6916 31.5611 61.9326 16.0587C89.1729 0.558625 122.326 -4.55291 154.931 4.40309C187.535 13.3591 213.439 34.6929 228.941 61.9339C244.441 89.1742 249.553 122.328 240.597 154.932C231.641 187.536 210.307 213.44 183.066 228.943C155.826 244.443 122.672 249.554 90.0521 240.594ZM220.512 130.529C224.948 126.083 224.951 118.885 220.511 114.433C216.075 118.88 216.069 126.091 220.512 130.529ZM34.136 79.3339C32.5778 73.241 36.2687 67.0563 42.3456 65.4937C43.9037 71.5865 40.2251 77.7894 34.136 79.3339ZM47.0535 107.957C43.8821 107.086 42.0055 103.812 42.881 100.624C43.7565 97.4371 47.0381 95.5967 50.2094 96.4679C53.3808 97.339 55.2574 100.613 54.3863 103.785C53.5151 106.956 50.2248 108.828 47.0535 107.957ZM194.786 148.537C191.614 147.666 189.738 144.392 190.613 141.205C191.489 138.017 194.77 136.177 197.942 137.048C201.113 137.919 202.99 141.194 202.119 144.365C201.247 147.536 197.957 149.409 194.786 148.537ZM19.5826 149.79C18.4247 145.326 21.0221 141.044 25.4655 139.897C29.983 138.722 34.2698 141.304 35.4288 145.817C36.0808 148.314 35.7449 150.196 34.4742 152.378L34.4376 152.449L31.4624 150.98L31.5033 150.893C32.2856 149.41 32.6101 148.291 32.1817 146.64C31.5048 144.055 28.8821 142.908 26.4026 143.551C23.939 144.197 22.193 146.459 22.8698 149.044C23.3031 150.731 24.2268 151.587 25.6224 152.51L25.7054 152.564L23.8937 155.414L23.8069 155.373C21.4339 154.084 20.2627 152.407 19.578 149.788L19.5826 149.79ZM32.7986 167.996L29.382 173.896L27.5464 170.062L30.597 164.843L29.5022 162.585L25.0079 164.746L23.4412 161.476L37.706 154.653L40.8097 161.185C41.5378 162.691 41.9252 164.429 41.3539 166.036C40.8916 167.362 39.8584 168.269 38.6205 168.86C36.534 169.855 34.4767 169.567 32.8008 167.997L32.7986 167.996ZM40.9708 184.949L37.1109 179.743L33.457 180.683L31.2431 177.69L48.0659 173.677L50.0321 176.322L41.2681 191.235L39.0053 188.18L40.9708 184.949ZM56.4002 188.925L54.175 191.139L59.4291 196.434L57.0752 198.76L51.8211 193.465L47.5344 197.724L44.9792 195.145L56.2112 184.029L64.7113 192.6L62.3536 194.939L56.3967 188.929L56.4002 188.925ZM68.1321 198.923L64.1963 196.259L66.0707 193.476L76.9479 200.822L75.0698 203.619L71.1339 200.955L64.1563 211.265L61.1568 209.233L68.1344 198.923L68.1321 198.923ZM91.8743 215.532C93.3152 216.824 93.8976 218.209 93.203 220.14C92.0576 223.303 88.8441 223.236 86.1229 222.26L79.0486 219.729L84.3794 204.836L91.2873 207.322C92.6704 207.817 94.0669 208.673 94.7197 210.043C95.1822 211.035 95.1937 212.001 94.8147 213.024C94.3071 214.453 93.3094 215.24 91.8749 215.529L91.8743 215.532ZM108.208 222.157L110.911 228.418L106.724 227.611L104.366 222.05L101.899 221.586L100.946 226.482L97.3848 225.78L100.406 210.27L107.502 211.648C109.144 211.969 110.773 212.694 111.737 214.117C112.511 215.276 112.625 216.647 112.369 217.996C111.927 220.258 110.457 221.746 108.208 222.157ZM120.004 216.175L120.034 219.155L127.382 219.084L127.422 222.327L120.058 222.394L120.09 225.487L128.549 225.412L128.589 228.655L116.512 228.765L116.366 212.956L128.344 212.85L128.364 216.105L120.004 216.175ZM139.289 221.913L140.529 211.04L143.54 210.414L149.02 219.885L150.006 209.105L153.727 208.331L151.692 225.009L148.626 225.652L143.208 216.556L141.858 227.056L138.806 227.703L130.266 213.212L134.077 212.414L139.288 221.908L139.289 221.913ZM159.859 208.416L161.149 211.088L167.783 207.914L169.181 210.844L162.547 214.018L163.868 216.814L171.519 213.152L172.917 216.082L162.017 221.298L155.209 207.038L166.014 201.876L167.412 204.806L159.86 208.411L159.859 208.416ZM183.306 202.809L189.625 205.36L186.088 207.719L180.494 205.447L178.415 206.834L181.19 210.992L178.173 213.003L169.391 199.866L175.41 195.84C176.791 194.913 178.451 194.277 180.139 194.608C181.515 194.888 182.559 195.78 183.324 196.919C184.607 198.839 184.607 200.927 183.306 202.806L183.306 202.809ZM192.027 194.35L180.968 191.82L183.979 188.827L190.925 190.637L189.247 183.614L192.182 180.716L194.554 191.749L198.992 196.217L196.413 198.772L192.028 194.353L192.027 194.35ZM32.4139 161.199L33.878 164.245C34.4783 165.503 35.5663 166.242 36.916 165.601C38.3398 164.931 38.3292 163.605 37.7129 162.343L36.2863 159.34L32.4139 161.199ZM40.4858 178.874L42.7818 181.987L45.4295 177.638L40.4858 178.874ZM85.5883 211.977L88.4693 213.014C89.5103 213.38 90.794 213.586 91.2438 212.306C91.6516 211.178 90.6785 210.501 89.7286 210.16L86.6378 209.048L85.5889 211.975L85.5883 211.977ZM83.4533 217.903L87.215 219.248C88.272 219.619 89.5105 219.748 89.9565 218.482C90.4177 217.222 89.2223 216.516 88.1973 216.153L84.5586 214.843L83.4562 217.902L83.4533 217.903ZM102.513 218.405L105.842 219.057C107.193 219.313 108.454 218.878 108.74 217.42C109.036 215.87 107.972 215.105 106.596 214.825L103.341 214.193L102.51 218.404L102.513 218.405ZM176.617 204.154L179.436 202.268C180.577 201.503 181.165 200.31 180.346 199.073C179.468 197.753 178.171 197.953 176.992 198.739L174.236 200.577L176.615 204.154L176.617 204.154ZM59.0696 47.2201C60.8829 46.5593 62.3761 46.7073 63.7501 48.2436C66.0023 50.7391 64.3979 53.5473 62.2704 55.4768L56.6781 60.5022L46.1112 48.7521L51.5589 43.8339C52.6589 42.862 54.0784 42.0293 55.5885 42.1157C56.6831 42.1714 57.5362 42.6336 58.2611 43.4379C59.2748 44.5641 59.4849 45.8151 59.0679 47.2172L59.0696 47.2201ZM66.2713 36.5138L67.8094 39.0581L74.1216 35.2742L75.7919 38.0509L69.476 41.8485L71.0686 44.4887L78.34 40.1205L80.006 42.9131L69.6631 49.1328L61.5188 35.5832L71.7812 29.4247L73.4515 32.2014L66.2759 36.515L66.2713 36.5138ZM82.0363 28.145L83.194 30.8788L89.9691 28.0233L91.2328 31.0313L84.4418 33.8825L85.636 36.7244L93.4608 33.4368L94.713 36.4245L83.5805 41.1214L77.4489 26.5418L88.485 21.9018L89.7531 24.8939L82.0363 28.145ZM107.18 27.885L112.086 32.6112L107.93 33.4765L103.597 29.2821L101.141 29.7837L102.162 34.6827L98.5983 35.4189L95.3883 19.9439L102.468 18.4779C104.098 18.127 105.881 18.1756 107.322 19.1105C108.485 19.871 109.127 21.0913 109.394 22.4387C109.88 24.7111 109.091 26.6308 107.18 27.8872L107.18 27.885ZM129.659 32.9324C125.06 32.5023 121.911 28.6333 122.337 24.0486C122.766 19.4008 126.633 16.2511 131.287 16.6647C133.849 16.9101 135.499 17.8533 137.137 19.7907L137.186 19.8531L134.791 22.1501L134.729 22.0839C133.595 20.8586 132.658 20.1773 130.954 20.0181C128.293 19.7772 126.337 21.8517 126.096 24.3973C125.868 26.9468 127.414 29.3463 130.073 29.5865C131.793 29.7478 132.926 29.1796 134.268 28.1588L134.33 28.1098L136.42 30.7884L136.353 30.851C134.331 32.6305 132.352 33.1797 129.661 32.9307L129.659 32.9324ZM146.699 35.9667C142.22 34.6211 139.684 30.2516 141.055 25.7328C142.426 21.214 147.035 19.0008 151.482 20.3376C155.958 21.6968 158.494 26.0663 157.122 30.5874C155.769 35.0963 151.142 37.3194 146.699 35.9667ZM169.972 35.1607L176.62 31.3393L180.018 33.1694L172.505 47.0859L169.336 45.3676L174.064 36.5937L167.283 40.2487L167.109 40.169L166.44 32.5589L161.729 41.2713L158.602 39.5793L166.115 25.6628L169.499 27.4892L169.972 35.1607ZM182.009 48.6845L179.027 52.288L176.236 49.9703L186.319 37.8036L191.301 41.9481C193.946 44.1449 194.735 47.3311 192.445 50.0811C190.073 52.9553 186.608 52.4935 183.949 50.2929L182.007 48.6816L182.009 48.6845ZM196.461 65.0594L192.368 60.0493L188.75 61.1602L186.408 58.2797L203.013 53.4542L205.099 56.0193L197.057 71.3266L194.652 68.3799L196.461 65.0571L196.461 65.0594ZM209.398 80.3665L217.693 75.9021L219.392 79.0469L205.469 86.5349L204.022 83.8367L209.072 72.7035L200.511 77.3056L198.812 74.1608L212.721 66.6691L214.288 69.5815L209.4 80.3671L209.398 80.3665ZM214.313 93.3061L221.649 84.6629L222.904 88.7122L218.107 94.0541L225.108 95.7812L226.342 99.7268L215.454 96.7532L209.439 98.6267L208.366 95.1663L214.313 93.3061ZM52.9496 51.0715L55.2421 49.0232C56.0485 48.2818 56.8411 47.2426 55.9397 46.2428C55.124 45.3498 54.0818 45.8794 53.3234 46.5532L50.87 48.768L52.9479 51.0686L52.9496 51.0715ZM57.166 55.7555L60.1182 53.0896C60.9646 52.3274 61.6673 51.3125 60.7658 50.3126C59.8682 49.2991 58.6925 50.02 57.8679 50.7564L54.9864 53.3437L57.1644 55.7526L57.166 55.7555ZM100.473 26.6306L103.796 25.9433C105.147 25.6627 106.141 24.7743 105.839 23.3218C105.513 21.7793 104.229 21.4585 102.859 21.7535L99.6063 22.4281L100.475 26.6336L100.473 26.6306ZM147.724 32.7713C150.334 33.5544 152.729 32.0243 153.504 29.4956C154.266 26.9631 153.032 24.3209 150.453 23.5488C147.863 22.7565 145.452 24.2799 144.673 26.8246C143.911 29.3571 145.15 31.9834 147.724 32.7713ZM184.098 46.1907L186.102 47.8682C187.223 48.7814 188.633 48.9384 189.606 47.7698C190.636 46.5188 190.124 45.2339 188.977 44.299L187.009 42.6658L184.098 46.1907ZM195.689 59.0209L198.132 62.0097L200.552 57.5317L195.687 59.0202L195.689 59.0209ZM134.767 67.5233L139.416 50.6003C122.982 46.7231 106.468 48.6676 92.0956 55.1673C77.4864 61.7636 65.1087 73.072 57.3119 87.7287C60.0757 89.37 62.2597 91.7659 63.6793 94.5545C65.5275 98.1641 66.0771 102.461 64.9181 106.68C63.7591 110.9 61.0918 114.313 57.6546 116.487C55.0074 118.159 51.9082 119.104 48.6938 119.103C47.9101 135.683 52.7743 151.728 61.9634 164.864C71.4789 178.479 85.6352 188.981 102.923 193.729C120.21 198.478 137.76 196.688 152.896 189.842C167.505 183.246 179.883 171.937 187.68 157.28C184.916 155.639 182.732 153.243 181.312 150.455C179.468 146.831 178.899 142.544 180.062 138.309C181.225 134.073 183.904 130.681 187.337 128.522C189.984 126.85 193.083 125.906 196.298 125.906C197.082 109.326 192.217 93.2812 183.028 80.1453C173.993 67.216 160.79 57.1084 144.681 52.0465L140.011 69.047C152.051 73.0548 161.62 81.2993 167.495 91.648C173.803 102.733 175.895 116.22 172.251 129.486L171.526 132.127L168.885 131.402C168.172 131.206 167.463 130.994 166.772 130.772C166.318 134.271 165.447 137.737 164.161 141.105C162.409 145.701 159.898 150.088 156.6 154.129L154.997 156.104L152.922 154.62C152.197 154.11 151.476 153.586 150.793 153.041C149.778 155.668 148.504 158.224 147 160.668C144.873 164.131 142.263 167.398 139.161 170.366L137.326 172.114L135.446 170.406C133.486 168.628 131.686 166.744 130.055 164.78C127.676 167.081 124.911 169.179 121.783 171.061C118.065 173.303 113.852 175.216 109.145 176.714L107.44 177.275L106.261 175.922C102.998 172.235 100.351 168.438 98.3004 164.611C96.572 161.394 95.2672 158.179 94.3975 154.985C91.991 155.843 89.4815 156.541 86.8889 157.068L84.3999 157.575L83.7151 155.136C82.5651 151 81.9902 146.858 81.9261 142.81C81.8719 139.921 82.0963 137.079 82.5651 134.302C81.6985 134.424 80.811 134.506 79.9279 134.572L77.3866 134.788L77.0012 132.266C76.2462 127.112 76.3286 122.058 77.1696 117.212C77.7853 113.66 78.809 110.236 80.2039 106.995C79.4827 106.829 78.7788 106.653 78.0657 106.457L75.4252 105.732L76.1505 103.091C79.7946 89.8249 88.4808 79.2985 99.552 72.9873C109.902 67.0979 122.341 64.8988 134.739 67.6011L134.759 67.526L134.767 67.5233ZM101.476 199.006C82.9282 193.912 67.7298 182.619 57.5021 167.975C47.1081 153.107 41.8496 134.751 43.4298 115.922L43.6924 112.941L46.6315 113.472C49.5113 113.986 52.3917 113.356 54.7404 111.879C57.0527 110.41 58.8635 108.099 59.6514 105.231C60.4393 102.363 60.0585 99.4673 58.8219 97.0205C57.5572 94.5512 55.4004 92.5377 52.6643 91.5092L49.871 90.448L51.1636 87.7672C59.423 70.7752 73.3209 57.6792 89.8516 50.2067C106.125 42.8424 124.957 40.8976 143.506 45.9929C162.056 51.0883 177.266 62.384 187.494 77.0278C197.888 91.8961 203.146 110.252 201.566 129.081L201.308 132.046L198.364 131.531C195.485 131.017 192.604 131.647 190.255 133.124C187.943 134.593 186.132 136.904 185.348 139.758C184.564 142.613 184.937 145.538 186.174 147.982C187.439 150.452 189.595 152.465 192.331 153.494L195.129 154.539L193.832 157.236C185.573 174.228 171.675 187.324 155.144 194.796C138.871 202.161 120.023 204.101 101.476 199.006ZM99.4899 152.868C100.272 155.908 101.467 158.978 103.108 162.04C104.708 165.011 106.731 167.983 109.185 170.94C112.82 169.653 116.077 168.132 118.969 166.397C121.944 164.603 124.54 162.574 126.765 160.36C126.36 159.759 125.984 159.165 125.611 158.558C123.411 154.982 121.7 151.231 120.47 147.385C119.304 147.831 118.084 148.231 116.832 148.622L115.174 149.13L114.007 147.846C113.147 146.875 112.303 145.908 111.512 144.924C108.506 147.607 105.118 149.96 101.4 151.908C100.769 152.242 100.144 152.557 99.4876 152.867L99.4899 152.868ZM137.17 137.753C134.784 139.84 132.072 141.756 129.038 143.468C127.921 144.092 126.743 144.7 125.541 145.266C126.642 148.867 128.221 152.385 130.259 155.721C132.178 158.843 134.495 161.815 137.233 164.559C139.202 162.439 140.917 160.183 142.364 157.824C144.047 155.086 145.378 152.203 146.37 149.243C143.022 146.038 140.164 142.543 137.82 138.831C137.605 138.478 137.377 138.122 137.169 137.756L137.17 137.753ZM108.252 140.52C107.511 139.42 106.808 138.295 106.164 137.187C104.431 134.166 103.063 131.129 102.093 128.121C101.71 128.327 101.346 128.521 100.984 128.713C97.0745 130.709 92.8312 132.251 88.315 133.296C87.6422 136.343 87.3272 139.506 87.3757 142.719C87.4137 145.488 87.7356 148.304 88.3461 151.13C92.1037 150.17 95.6134 148.802 98.8557 147.095C102.312 145.269 105.467 143.05 108.253 140.518L108.252 140.52ZM106.884 125.174C107.757 128.238 109.094 131.33 110.883 134.451C112.499 137.244 114.499 140.062 116.898 142.861C120.388 141.68 123.565 140.284 126.379 138.707C129.509 136.938 132.24 134.963 134.556 132.775C132.96 129.315 131.789 125.73 131.027 122.093C128.632 123.263 126.06 124.303 123.329 125.219L121.587 125.801L120.399 124.414C118.517 122.231 116.839 120.026 115.379 117.795C112.863 120.531 110.011 123.014 106.889 125.175L106.884 125.174ZM142.894 114.123C140.846 115.994 138.572 117.736 136.029 119.321C136.999 125.056 139.154 130.708 142.443 135.904C145.388 140.582 149.246 144.891 153.972 148.604C156.12 145.602 157.818 142.445 159.062 139.163C160.348 135.794 161.166 132.28 161.517 128.738C154.054 125.365 147.723 120.296 142.892 114.123L142.894 114.123ZM112.474 112.851C111.115 110.191 110.035 107.528 109.244 104.88C101.934 107.721 93.9043 108.845 85.764 107.93C84.2576 111.157 83.1665 114.594 82.5485 118.146C81.9419 121.603 81.775 125.181 82.1015 128.863C88.0611 128.084 93.5819 126.351 98.5001 123.833C103.982 121.047 108.706 117.284 112.469 112.85L112.474 112.851ZM114.256 102.616C115.015 105.321 116.109 108.055 117.561 110.789C119.098 113.693 121.014 116.586 123.329 119.442C126.794 118.173 129.918 116.665 132.723 114.953C135.368 113.345 137.704 111.556 139.739 109.616C139.412 109.085 139.088 108.54 138.779 107.997C135.091 101.515 132.854 94.2094 132.347 86.6094C128.043 92.8877 122.388 98.0258 115.906 101.714C115.363 102.023 114.806 102.326 114.254 102.615L114.256 102.616ZM82.2614 101.842C93.1799 104.106 104.105 102.128 113.2 96.9549C122.308 91.7854 129.589 83.404 133.205 72.8545C122.291 70.5744 111.366 72.5523 102.267 77.7415C93.1741 82.9153 85.8931 91.2967 82.2614 101.842ZM143.526 105.285C148.715 114.382 157.097 121.663 167.64 125.294C169.904 114.376 167.926 103.451 162.753 94.3562C157.567 85.2431 149.186 77.9621 138.652 74.3508C136.372 85.2648 138.35 96.1895 143.523 105.284L143.526 105.285ZM25.131 110.636C26.9745 106.832 31.1157 104.476 35.5346 105.087L36.0072 105.151L35.9391 105.639C35.1973 110.953 30.4103 114.715 25.1249 114.226L25.1205 114.242L24.632 114.174L24.1594 114.11L24.1638 114.095C18.9364 113.1 15.3576 108.182 16.0994 102.868L16.1674 102.379L16.6559 102.447C21.0551 103.067 24.399 106.468 25.131 110.636ZM24.3938 127.163C18.9196 127.13 14.4133 122.609 14.4458 117.085L14.4502 116.596L14.939 116.601C19.3714 116.627 23.1444 119.59 24.4231 123.614C25.752 119.605 29.5546 116.698 33.987 116.724L34.4758 116.729L34.4714 117.217C34.4427 122.727 29.8697 127.2 24.3932 127.166L24.3938 127.163ZM31.6963 85.4237C34.4799 82.2387 39.0835 81.0531 43.1895 82.8033L43.6283 82.9899L43.4372 83.4446C41.3148 88.3794 35.7187 90.7429 30.7451 88.8867L30.7247 88.8983L30.286 88.7116L29.835 88.5069L29.851 88.5112C25.0699 86.186 22.914 80.4852 25.019 75.5603L25.2101 75.1056L25.6648 75.2967C29.751 77.0562 32.0834 81.2226 31.6979 85.4266L31.6963 85.4237ZM27.4776 98.1059C29.8007 94.5812 34.2269 92.7931 38.517 93.9887L38.9886 94.1183L38.8591 94.5899C37.4076 99.758 32.1704 102.84 26.9908 101.662L26.9864 101.678L26.0455 101.42L26.0498 101.404C21.0218 99.7457 18.1206 94.3768 19.554 89.2208L19.6835 88.7492L20.1551 88.8788C24.4453 90.0744 27.2992 93.8941 27.4799 98.1066L27.4776 98.1059ZM212.355 162.064C212.713 157.852 210.356 153.711 206.259 151.983L205.804 151.792L205.613 152.247C203.537 157.194 205.746 162.878 210.54 165.157L210.535 165.173L210.974 165.36L210.99 165.364L211.429 165.551L211.433 165.535C216.422 167.346 222.008 164.946 224.087 159.999L224.278 159.545L223.84 159.358C219.725 157.64 215.113 158.855 212.355 162.064ZM204.546 176.649C209.271 179.417 215.466 177.835 218.262 173.071L218.508 172.648L218.086 172.402C214.262 170.161 209.505 170.78 206.35 173.587C207.255 169.462 205.455 165.015 201.631 162.774L201.209 162.528L200.963 162.951C198.187 167.706 199.822 173.883 204.545 176.651L204.546 176.649ZM219.604 137.039C218.838 132.879 215.47 129.504 211.062 128.916L210.573 128.848L210.519 129.34C209.807 134.662 213.426 139.557 218.65 140.502L218.646 140.518L219.118 140.581L219.134 140.586L219.611 140.636C224.909 141.079 229.674 137.28 230.366 131.967L230.435 131.478L229.962 131.415C225.534 130.835 221.417 133.23 219.601 137.041L219.604 137.039ZM216.752 150.097C216.539 145.876 213.664 142.082 209.365 140.918L208.893 140.789L208.764 141.26C207.358 146.441 210.299 151.77 215.354 153.403L215.349 153.419L216.274 153.673L216.279 153.657C221.464 154.805 226.701 151.671 228.086 146.502L228.216 146.03L227.76 145.905C223.461 144.742 219.043 146.564 216.75 150.097L216.752 150.097ZM20.7969 180.371C35.6046 206.394 60.3521 226.773 91.4983 235.329C122.645 243.884 154.33 239.006 180.367 224.203C206.394 209.381 226.77 184.647 235.329 153.487C243.888 122.327 239.007 90.6558 224.199 64.6323C209.378 38.6051 184.644 18.2297 153.484 9.67046C122.324 1.11122 90.6523 5.99275 64.6288 20.8004C38.6053 35.6081 18.2261 60.3557 9.67063 91.5019C1.11515 122.648 5.99293 154.333 20.7969 180.371Z" fill="#97B0AA"/>
</svg>
