<svg width="20" height="20" viewBox="0 0 20 20" fill="none" xmlns="http://www.w3.org/2000/svg">
<g clip-path="url(#clip0_493_2347)">
<path d="M11.7074 4.99935C12.5213 5.15815 13.2694 5.55623 13.8558 6.14263C14.4422 6.72903 14.8403 7.47707 14.9991 8.29102M11.7074 1.66602C13.3985 1.85388 14.9754 2.61116 16.1793 3.81352C17.3831 5.01588 18.1424 6.59186 18.3324 8.28268M8.52155 11.5519C7.52023 10.5506 6.72958 9.41839 6.14958 8.21037C6.09969 8.10647 6.07475 8.05451 6.05558 7.98877C5.98748 7.75514 6.0364 7.46826 6.17807 7.2704C6.21794 7.21472 6.26557 7.16709 6.36083 7.07183C6.65217 6.78049 6.79784 6.63483 6.89308 6.48834C7.25224 5.93593 7.25224 5.22378 6.89308 4.67138C6.79784 4.52489 6.65217 4.37923 6.36083 4.08789L6.19844 3.92549C5.75557 3.48263 5.53414 3.26119 5.29632 3.1409C4.82335 2.90168 4.2648 2.90168 3.79183 3.1409C3.55401 3.26119 3.33258 3.48263 2.88971 3.92549L2.75835 4.05686C2.31699 4.49821 2.09632 4.71889 1.92778 5.01891C1.74076 5.35183 1.60629 5.86891 1.60743 6.25076C1.60845 6.59488 1.67521 6.83007 1.80871 7.30044C2.52619 9.82827 3.87992 12.2136 5.8699 14.2036C7.85988 16.1935 10.2452 17.5473 12.773 18.2647C13.2434 18.3983 13.4786 18.465 13.8227 18.466C14.2045 18.4672 14.7216 18.3327 15.0545 18.1457C15.3546 17.9771 15.5752 17.7565 16.0166 17.3151L16.148 17.1837C16.5908 16.7409 16.8123 16.5194 16.9325 16.2816C17.1718 15.8087 17.1718 15.2501 16.9325 14.7771C16.8123 14.5393 16.5908 14.3179 16.148 13.875L15.9856 13.7126C15.6942 13.4213 15.5486 13.2756 15.4021 13.1804C14.8497 12.8212 14.1375 12.8212 13.5851 13.1804C13.4386 13.2756 13.293 13.4213 13.0016 13.7126C12.9064 13.8079 12.8587 13.8555 12.8031 13.8954C12.6052 14.0371 12.3183 14.086 12.0847 14.0179C12.0189 13.9987 11.967 13.9738 11.8631 13.9239C10.6551 13.3439 9.52286 12.5532 8.52155 11.5519Z" stroke="#EBD8C5" stroke-width="2" stroke-linecap="round" stroke-linejoin="round"/>
</g>
<defs>
<clipPath id="clip0_493_2347">
<rect width="20" height="20" fill="white"/>
</clipPath>
</defs>
</svg>
